<svg width="33" height="35" viewBox="0 0 33 35" fill="none" xmlns="http://www.w3.org/2000/svg">
<path d="M24.8485 34.3751C23.4098 33.9153 21.7958 33.593 20.3439 32.904C11.2139 28.5672 4.59613 21.6655 0.841067 11.9378C0.480285 11.0045 0.362479 9.97181 0.0959433 8.99568C-0.116108 8.2166 0.0237871 7.52613 0.51121 6.92579C2.18111 4.86659 3.81272 2.7692 5.56656 0.787916C6.56202 -0.334865 7.18198 -0.256958 7.96539 1.01705C9.37464 3.30692 10.7132 5.64566 11.9973 8.01343C12.5745 9.07817 12.4273 9.42493 11.5364 10.2544C10.8605 10.8838 10.1448 11.4673 9.50423 12.1303C9.31427 12.3274 9.17732 12.7749 9.25831 13.0255C11.102 18.7982 14.8173 22.6585 20.3601 24.6413C20.8018 24.8002 21.0875 24.7085 21.3776 24.351C22.0093 23.572 22.6691 22.8189 23.314 22.052C23.7882 21.4899 24.3434 21.2561 25.006 21.664C27.4476 23.1641 29.9082 24.6337 32.3041 26.2086C33.1921 26.7921 33.1994 27.3512 32.5014 28.1792C30.5665 30.4736 28.3149 32.3908 25.8336 34.0161C25.5965 34.1704 25.2947 34.2162 24.8485 34.3751Z" fill="#EE2852"/>
</svg>
