<svg width="26" height="34" viewBox="0 0 26 34" fill="none" xmlns="http://www.w3.org/2000/svg">
<path d="M26.0001 12.6263C25.9419 16.2207 24.7972 19.2645 23.1734 22.1583C20.7486 26.4798 17.535 30.1882 13.8911 33.5571C13.2754 34.1263 12.7518 34.1515 12.1645 33.6062C7.79533 29.5487 3.9755 25.0839 1.56291 19.6081C0.0771935 16.2406 -0.534412 12.771 0.552135 9.15004C2.26652 3.43671 7.98071 -0.44692 13.9696 0.0413532C20.1506 0.545548 25.1666 5.25181 25.8675 11.2106C25.9324 11.7586 25.9703 12.3092 26.0001 12.6263ZM13.0048 19.8124C17.0087 19.8085 20.2088 16.6559 20.1966 12.7258C20.1844 8.82629 16.9992 5.70161 13.021 5.69099C9.01313 5.67905 5.79949 8.81568 5.79543 12.7431C5.79138 16.6718 8.9996 19.8177 13.0048 19.8124Z" fill="#EE2852"/>
</svg>
