<svg width="37" height="37" viewBox="0 0 37 37" fill="none" xmlns="http://www.w3.org/2000/svg">
<path d="M17.8481 0.0117188C18.601 0.0117188 19.3468 0.0117188 20.0997 0.0117188C20.7119 0.0891032 21.3311 0.152418 21.9362 0.257942C25.3207 0.834808 28.3111 2.24883 30.8794 4.52816C34.0105 7.314 35.9737 10.7822 36.7125 14.9188C36.8321 15.573 36.8954 16.2343 36.9869 16.8956C36.9869 17.6483 36.9869 18.394 36.9869 19.1468C36.9658 19.2382 36.9377 19.3297 36.9306 19.4211C36.7195 22.1999 35.9244 24.8029 34.4679 27.1807C31.6112 31.866 27.4808 34.7433 22.0769 35.7633C21.4226 35.8829 20.7612 35.9462 20.0997 36.0377C19.3468 36.0377 18.601 36.0377 17.8481 36.0377C17.4119 35.9814 16.9686 35.9392 16.5323 35.8759C12.9508 35.3623 9.77745 33.9272 7.0755 31.5213C3.94434 28.7354 1.98824 25.2813 1.24239 21.1588C1.12277 20.4905 1.05241 19.8151 0.960938 19.1468C0.960938 18.394 0.960938 17.6483 0.960938 16.8956C1.03834 16.2906 1.10166 15.6856 1.20017 15.0876C1.84048 11.338 3.47994 8.10191 6.14671 5.39346C8.84162 2.67093 12.0854 0.954402 15.8709 0.286082C16.5253 0.173523 17.1867 0.103173 17.8481 0.0117188ZM17.4822 13.8776C17.4822 15.4394 17.4893 16.9941 17.4752 18.5558C17.4682 19.1327 17.6581 19.59 18.0733 19.998C20.4727 22.3758 22.8509 24.7677 25.2433 27.1526C25.3488 27.2581 25.4544 27.3706 25.581 27.4621C26.4043 28.0952 27.6145 27.7154 27.9171 26.7164C28.1071 26.0903 27.9101 25.5697 27.4597 25.1195C25.2081 22.8753 22.9635 20.6241 20.7119 18.387C20.543 18.2182 20.4656 18.0493 20.4727 17.8031C20.4797 16.164 20.4797 14.5178 20.4797 12.8786C20.4797 11.6124 20.4727 10.3461 20.4797 9.07977C20.4797 8.60843 20.3319 8.2004 19.9731 7.89086C19.5016 7.48987 18.9599 7.39842 18.3969 7.6376C17.82 7.88383 17.4963 8.34813 17.4893 8.98128C17.4752 10.6204 17.4822 12.2455 17.4822 13.8776Z" fill="#EE2852"/>
</svg>
