<svg width="16" height="13" viewBox="0 0 16 13" fill="none" xmlns="http://www.w3.org/2000/svg">
<path d="M5.57115 8.58558C5.68981 8.42233 5.7585 8.30478 5.84593 8.21336C8.28765 5.66005 10.7294 3.10674 13.1711 0.553435C13.8768 -0.184478 14.52 -0.184478 15.2194 0.553435C15.3568 0.697099 15.5004 0.840764 15.6378 0.990958C16.1249 1.53296 16.1186 2.26435 15.6315 2.80635C15.5816 2.8586 15.5316 2.91737 15.4754 2.96961C12.4155 6.16941 9.35551 9.36921 6.29555 12.569C5.74601 13.1437 5.35883 13.1437 4.80929 12.569C3.37298 11.0671 1.94292 9.57164 0.506613 8.0697C-0.167827 7.36444 -0.167827 6.6657 0.500368 5.96697C0.637754 5.82331 0.77514 5.67311 0.91877 5.52945C1.46207 4.98744 2.16773 4.98091 2.69854 5.53598C3.57281 6.43715 4.4346 7.35138 5.30263 8.25907C5.37756 8.3309 5.44001 8.42233 5.57115 8.58558Z" fill="#EE2852"/>
</svg>
