<svg width="242" height="100" viewBox="0 0 242 100" fill="none" xmlns="http://www.w3.org/2000/svg">
<g opacity="0.06">
<path d="M184.288 4.64069L184.036 4.60988C177.581 3.47967 170.366 2.56827 162.394 1.87489C154.863 1.22543 146.658 0.763945 137.778 0.491987H137.619C118.784 0.324806 103.692 1.05979 92.3421 2.69539C92.2359 2.69539 92.1405 2.7054 92.0551 2.7262C88.3868 3.54285 85.4878 4.87336 83.3573 6.71697L83.1983 6.87491C76.4898 12.4065 69.9403 18.2309 63.5497 24.348C63.1907 24.6847 62.5896 25.1146 61.7466 25.6385C60.9222 26.1215 60.3312 26.5399 59.9745 26.8943L59.1175 27.7456C46.8847 28.855 32.879 31.7672 17.1019 36.4821L16.846 36.5438C15.1375 37.1116 13.5243 37.8666 12.0066 38.8088C10.3182 39.8358 8.96796 40.9567 7.95431 42.1717C5.78277 46.6555 4.4969 50.741 4.09594 54.429C3.00009 54.9121 2.13535 55.6448 1.50172 56.6286C0.933244 57.53 0.510569 58.7241 0.233697 60.211L0.14063 60.812C-0.23939 63.4522 0.150712 65.7349 1.31171 67.661L1.43968 67.8806L1.69173 68.6356C2.26021 70.5231 2.3874 72.2527 2.07175 73.8243L1.21477 77.688C0.984431 79.1341 1.36445 80.3282 2.35483 81.2705C3.3266 82.1926 4.7412 82.7057 6.5971 82.8113L18.9051 83.2504C20.5493 87.4623 22.8798 90.6372 25.8967 92.7767C9.25336 93.5294 0.931693 94.3884 0.931693 95.3537C0.931693 96.507 12.6914 97.4816 36.2115 98.2775C59.7519 99.1149 88.1658 99.5332 121.452 99.5332C154.757 99.5332 183.169 99.1149 206.689 98.2775C230.23 97.4816 242 96.507 242 95.3537C242 94.4315 234.576 93.6141 219.726 92.8999C221.71 90.6788 223.312 86.6133 224.535 80.7042C230.127 78.7781 232.859 75.7928 232.732 71.7481C232.732 71.6633 232.732 71.5901 232.732 71.5285L234.505 66.6248C237.625 61.8482 237.877 58.171 235.261 55.5924C235.22 55.5515 235.178 55.5092 235.137 55.4653C235.305 47.2934 233.586 41.3111 229.979 37.5183C229.935 37.4775 229.892 37.4359 229.851 37.3951L228.808 32.7726C227.521 29.442 223.323 27.5876 216.213 27.2101C209.949 20.7771 202.567 14.4597 194.067 8.25781L193.59 7.88031C190.933 6.28785 187.832 5.20849 184.288 4.64069ZM187.549 7.56444L188.689 8.06906C190.079 8.55211 192.452 10.1338 195.805 12.8148C201.753 17.2579 207.323 22.0252 212.514 27.1177C213.189 27.7648 213.873 28.4351 214.569 29.1285C216.867 31.224 219.04 32.942 221.088 34.2826L216.973 29.348C222.059 29.9544 225.033 31.2417 225.896 33.2117L227.257 38.2733C228.987 40.2433 230.168 42.1701 230.801 44.0553L229.63 44.09L230.041 46.6671C228.565 44.3196 226.582 42.9675 224.093 42.6108C219.137 42.3589 210.689 42.3065 198.748 42.4529C199.549 44.8204 199.909 47.4398 199.826 50.3111C199.381 47.3581 198.443 44.7079 197.011 42.3604L196.061 42.2641C196.04 42.6208 196.029 42.9783 196.029 43.335C195.965 43.8589 195.626 44.1208 195.014 44.1208L193.528 44.09C192.789 43.9644 192.483 43.2094 192.609 41.825H192.516C192.263 41.8458 192.115 41.8774 192.074 41.9213C192.01 41.9621 191.967 42.0353 191.946 42.1409L161.064 42.11C160.389 40.6848 159.557 39.0076 158.566 37.0792C159.683 43.4275 159.968 48.4675 159.42 52.1987C159.187 48.4259 158.29 44.8851 156.728 41.5746C153.691 41.5954 150.823 41.6262 148.124 41.667C126.186 42.0885 114.649 43.6917 113.511 46.4783C118.34 53.0985 120.027 57.426 118.571 59.4599L126.831 59.3636C129.424 49.7256 133.453 44.4868 138.918 43.647C142.565 43.3751 145.634 45.1147 148.124 48.8666C149.853 51.4452 151.309 54.9968 152.49 59.5215L159.292 59.3944C159.966 60.5269 160.093 62.7172 159.672 65.9661C161.044 64.3097 161.351 62.1086 160.591 59.3636L199.539 58.5469C200.004 59.1116 200.184 61.2704 200.078 65.0223C200.794 63.2835 201.131 61.9738 201.09 61.0932C201.049 60.2126 200.954 59.3636 200.807 58.5469L206.817 58.4198C208.821 49.2649 211.838 44.5923 215.868 44.402C215.951 44.3812 216.045 44.3712 216.151 44.3712C217.733 44.204 219.294 45.1054 220.836 47.0754C222.627 49.3381 223.86 52.6278 224.535 56.9445L232.321 56.6286V56.6594C232.425 56.7233 232.529 56.7981 232.636 56.8828C233.838 57.8459 234.344 59.2596 234.156 61.124C234.156 61.1879 234.156 61.2511 234.156 61.3127L233.966 62.0986C233.733 63.3335 233.269 64.5277 232.574 65.681L230.801 70.681C231.137 73.1749 229.175 75.5208 224.915 77.7188C225.401 73.2142 225.138 69.0031 224.124 65.0839C224.145 64.9784 224.177 64.8852 224.221 64.8027C224.875 62.4969 224.664 60.265 223.589 58.1078C223.061 52.7226 221.204 50.1132 218.016 50.2803C217.975 50.2803 217.933 50.2903 217.892 50.3111C214.41 50.2703 211.203 52.9521 208.272 58.3582C208.21 58.4838 208.158 58.5993 208.116 58.7049C208.116 58.7257 208.127 58.7565 208.147 58.7973C208.316 59.134 208.41 59.5431 208.431 60.0261C208.472 61.03 208.165 62.3505 207.512 63.9861C207.491 64.0269 207.47 64.0785 207.45 64.1402C207.049 64.9799 206.637 65.567 206.216 65.9006L153.599 67.5377C153.682 71.6233 153.449 74.2843 152.901 75.5193C153.576 77.0909 153.882 78.5794 153.82 79.9838L198.147 79.2288L204.952 68.104C203.833 71.1833 203.21 73.9692 203.083 76.463C203.758 79.9399 203.59 81.8575 202.579 82.2142H202.071C187.157 83.0948 170.536 83.745 152.207 84.1634C152.734 81.4384 152.955 78.5894 152.87 75.6156C152.849 75.5516 152.849 75.4985 152.87 75.4576C152.849 75.0185 152.829 74.5678 152.808 74.1056C152.661 71.9045 152.364 69.6425 151.92 67.3182L151.796 66.2781C152.197 64.2265 152.058 62.3929 151.381 60.7773C151.36 60.7157 151.34 60.6525 151.319 60.5885C150.603 57.4452 149.538 55.0045 148.124 53.2657C146.162 50.8366 143.515 49.8104 140.182 50.1879C135.901 50.4167 132.168 53.7796 128.983 60.2765L128.824 60.6232C128.359 63.849 127.198 66.6456 125.342 69.0131L122.686 77.8151C123.676 81.6079 122.188 83.6087 118.222 83.8167C118.119 83.8167 118.014 83.8267 117.908 83.8475L30.4531 81.3976L8.43128 80.1071C5.7533 79.9199 4.50854 78.9569 4.697 77.218L4.94905 75.4576C4.90795 77.3221 5.81534 78.4107 7.67124 78.7242C7.81859 78.7473 7.96595 78.7689 8.1133 78.7897C43.3831 80.6541 80.2024 81.8275 118.571 82.3105C120.892 81.9538 121.59 80.3498 120.661 77.4992L123.411 68.2272C124.424 67.6826 125.448 66.2165 126.482 63.8282C126.523 63.8282 126.566 63.8181 126.61 63.7973C127.538 63.5254 127.99 62.6972 127.967 61.3127L93.3232 61.3436L106.484 62.6032C105.45 63.7126 104.839 65.2095 104.65 67.0947L114.554 68.3236L4.94905 66.2165L5.29805 66.2473L9.91646 68.8898C10.865 67.8628 11.8995 67.3274 13.0187 67.2835C14.3472 67.2219 15.4446 67.5262 16.3109 68.1964C16.5203 68.3428 16.7087 68.5108 16.877 68.7011L86.7736 70.7735C86.7527 70.7943 86.731 70.8143 86.7077 70.8351C85.4025 72.0085 84.6005 73.4029 84.3035 75.0185C84.0088 76.611 84.3051 77.9715 85.1915 79.1017C85.6126 79.6487 86.1183 80.0686 86.7077 80.3614L13.4607 78.0039C13.3343 78.0447 13.218 78.0863 13.1117 78.1271C12.817 78.2119 12.5223 78.2543 12.2276 78.2543C11.6793 78.2543 11.2054 78.1079 10.8045 77.8151L7.45021 77.5956C7.28191 77.5747 7.12292 77.5432 6.97324 77.4992C5.91849 77.2065 5.27633 76.3475 5.046 74.9222L5.5501 71.2781C5.63541 69.8937 5.37173 68.584 4.75904 67.349C4.697 67.2234 4.6334 67.097 4.56903 66.9715C3.74695 66.0292 3.35684 64.52 3.39795 62.4453L3.43285 61.5015C3.43285 59.0724 4.50854 57.3643 6.65914 56.3782L33.8694 57.5415C34.3114 56.2626 34.2905 54.1247 33.8073 51.1278L71.9335 51.5708L69.8123 56.0315C69.4765 56.8921 69.5928 57.5623 70.1613 58.0423C70.7096 58.5254 71.5744 58.7357 72.7555 58.6741L114.488 58.8281C115.122 58.7257 115.597 58.4221 115.915 57.919C116.231 57.3952 116.304 56.7881 116.136 56.097C115.523 54.5461 114.963 53.2773 114.457 52.2911C113.782 50.9714 113.013 49.7873 112.15 48.7395C110.461 46.5823 108.584 45.4614 106.515 45.3766C106.453 45.3558 106.39 45.3458 106.325 45.3458C106.242 45.3458 105.674 45.3458 104.619 45.3458L99.6827 45.2842C100.104 44.09 100.695 43.1362 101.455 42.4221C102.109 41.8365 102.994 41.345 104.111 40.9467C104.365 40.8828 104.628 40.8096 104.902 40.7271C102.899 41.1455 101.412 41.6694 100.443 42.2988C99.3438 43.0307 98.6683 44.0261 98.4147 45.2842L80.0651 45.2187C78.545 45.2187 77.1529 45.6794 75.8888 46.6016C74.7487 47.4413 73.6304 48.7202 72.5345 50.4383L33.4894 49.6524C32.9829 47.0538 32.1073 45.5022 30.8641 44.9991C27.9535 44.7063 25.7067 44.4968 24.1246 44.3712C21.3613 44.1193 18.9036 43.9837 16.7529 43.9629C17.0477 43.3134 17.4378 42.7364 17.924 42.2333C18.2808 41.835 18.7965 41.3743 19.4713 40.8504C19.1354 40.976 18.8097 41.1123 18.4941 41.2587C16.953 41.7618 15.8665 42.6632 15.2329 43.9629L10.6765 43.9937C11.3101 42.694 12.1849 41.6994 13.3017 41.0083C14.1882 40.4636 15.9076 39.731 18.4592 38.8088L18.6802 38.778C24.8613 36.788 31.77 35.08 39.4068 33.6547C44.9753 32.6277 50.7237 31.7887 56.6512 31.1393C57.9154 31.0137 59.1811 30.8873 60.4475 30.7618C60.4685 30.741 60.4886 30.7309 60.5096 30.7309C78.6288 29.2648 94.7021 28.6254 108.73 28.8126C122.715 28.9798 135.847 29.7024 148.124 30.9813C150.274 31.1917 152.405 31.4228 154.514 31.6747C154.894 30.4806 155.243 29.2749 155.561 28.0576C156.277 25.1454 156.783 22.16 157.077 19.1015C157.395 15.7062 157.448 12.2278 157.236 8.66614C134.836 5.96196 111.833 5.8672 88.2278 8.38108C81.2657 12.8441 75.7399 16.9212 71.6504 20.6115C67.5345 24.2995 64.7922 26.677 63.4218 27.7456C63.4629 27.7017 63.5055 27.6593 63.5497 27.6185C63.5908 27.5568 63.6428 27.5044 63.7049 27.4605C71.3208 19.9389 78.8204 13.244 86.2036 7.37568C89.0088 5.74239 92.9106 4.7162 97.9106 4.29786C119.954 2.747 141.175 2.747 161.572 4.29786L161.824 4.32867C162.015 4.32867 162.205 4.33869 162.394 4.35949C172.941 5.00896 181.327 6.07753 187.549 7.56444ZM216.814 58.4853C218.482 58.4853 219.896 59.9838 221.057 62.9807C222.238 65.9953 222.829 69.641 222.829 73.9168C222.829 78.1695 222.238 81.8044 221.057 84.8221C219.896 87.819 218.482 89.3175 216.814 89.3175C215.211 89.3175 213.809 87.819 212.607 84.8221C212.524 84.6141 212.461 84.4045 212.417 84.1942C212.334 84.0478 212.293 83.9114 212.293 83.7859C212.334 83.953 212.418 84.0994 212.545 84.225C213.199 84.3714 213.493 83.7219 213.429 82.2758C213.303 81.2512 213.049 80.4446 212.669 79.8567C212.165 79.9006 211.68 79.7219 211.215 79.3213C210.961 77.6672 210.835 75.866 210.835 73.9168C210.835 69.641 211.426 65.9953 212.607 62.9807C212.819 62.4568 213.03 61.9961 213.239 61.5978C213.239 61.5539 213.261 61.5323 213.305 61.5323C214.336 59.5007 215.507 58.4853 216.814 58.4853ZM193.21 46.4128C193.422 46.5615 193.676 46.6463 193.97 46.6671L195.332 46.7287C195.396 46.7287 195.459 46.7187 195.522 46.6979C196.111 46.5515 196.301 46.0584 196.092 45.2187C195.753 46.2256 195.089 46.5299 194.098 46.1316C195.342 45.6077 196.123 44.6432 196.441 43.2387C196.841 45.4806 196.672 46.7695 195.933 47.1062C194.162 47.1909 193.255 46.9598 193.21 46.4128ZM197.926 68.4468C196.47 71.9268 194.657 74.6926 192.485 76.7442L155.844 77.5301C156.498 76.3798 156.994 75.2381 157.329 74.1056C157.689 72.8706 158.016 71.4877 158.311 69.9568C158.437 72.4299 158.28 74.5886 157.837 76.4322L190.775 75.708C192.927 74.6602 195.31 72.2396 197.926 68.4468ZM195.522 85.0108C196.282 87.8822 197.346 90.2497 198.717 92.1141C184.015 91.675 167.584 91.3822 149.423 91.2358C150.204 89.8105 150.889 88.1965 151.478 86.3937L195.522 85.0108ZM87.2777 12.3449C92.3832 11.4643 98.1642 11.3164 104.619 11.9019L98.9227 26.1739C89.8743 26.11 80.7305 26.4759 71.4914 27.2718C75.7313 21.9921 80.9935 17.0159 87.2777 12.3449ZM131.007 10.7386C131.155 10.7386 131.312 10.7386 131.48 10.7386C139.897 10.9081 148.103 11.4535 156.096 12.3757C155.97 14.7432 155.792 16.9851 155.561 19.1015C155.181 22.3704 154.654 25.3557 153.979 28.0576C153.873 28.4559 153.767 28.8534 153.661 29.2517L149.896 29.1901C149.475 28.7918 149.053 28.4143 148.632 28.0576C148.461 27.932 148.292 27.8057 148.124 27.6801C148.038 27.5977 147.955 27.5245 147.872 27.4605C143.461 24.1708 138.895 23.7417 134.171 26.1739L128.886 12.5953C128.824 12.4489 128.781 12.3233 128.758 12.2178C128.57 11.2547 129.32 10.7617 131.007 10.7386ZM28.6189 46.1624C29.2494 46.2264 29.8923 46.2996 30.5461 46.382C31.8545 48.5831 32.6037 51.8212 32.7952 56.097L7.29122 55.1841C7.58593 51.9152 8.567 48.6147 10.2344 45.2842C10.4671 45.2842 10.6982 45.2842 10.9286 45.2842C11.9422 45.2842 12.945 45.2942 13.9377 45.315C13.0094 47.8705 12.323 50.6255 11.8786 53.5816C12.7007 50.523 13.629 47.778 14.6628 45.3458C19.303 45.4305 23.712 45.6825 27.8899 46.1008C27.1508 48.5099 26.5598 51.1494 26.1177 54.0207C26.8576 51.0877 27.6913 48.4683 28.6189 46.1624ZM52.979 91.8945C54.2454 90.6179 55.47 89.0363 56.6512 87.1488L80.8872 88.7512L87.1226 87.245L107.814 87.4954C108.595 89.1518 109.84 90.3783 111.549 91.1742C89.8208 91.215 70.297 91.4554 52.979 91.8945ZM130.15 62.5685C132.366 58.9653 135.046 57.164 138.189 57.164C141.312 57.164 143.98 58.9653 146.193 62.5685C146.974 63.8266 147.617 65.1895 148.124 66.6556C149.052 69.2958 149.516 72.2504 149.516 75.5193C149.516 78.7882 149.052 81.7535 148.124 84.4138C147.617 85.8598 146.974 87.2119 146.193 88.47C145.539 89.5386 144.843 90.45 144.106 91.205C142.356 92.9847 140.384 93.8745 138.189 93.8745C135.953 93.8745 133.96 92.9747 132.209 91.1742C131.49 90.4192 130.804 89.5178 130.15 88.47C128.653 86.0609 127.651 83.3259 127.145 80.2651C127.104 79.9931 127.062 79.7412 127.021 79.51C127 79.2612 126.99 79.0308 126.99 78.8205C126.967 78.7797 126.955 78.7373 126.955 78.6934C126.852 77.6664 126.8 76.6079 126.8 75.5193C126.8 70.4707 127.917 66.1533 130.15 62.5685ZM106.104 47.137C106.991 47.1578 107.866 47.4198 108.73 47.9229C110.756 49.1378 112.698 51.7464 114.554 55.7503C115.037 57.1548 114.393 57.7827 112.623 57.634L74.1787 57.5415C72.9975 57.6671 72.1855 57.5315 71.7434 57.1332C71.3014 56.7349 71.2486 56.0955 71.5845 55.2149L74.2446 50.1224C75.995 47.6085 78.4194 46.4344 81.5193 46.6016H81.8683C81.1292 49.7241 80.6956 52.9629 80.5692 56.3166C81.0346 52.8805 81.7108 49.654 82.5973 46.6362L100.377 47.0099C99.8285 49.7988 99.502 52.607 99.3958 55.4344C99.9022 52.5631 100.578 49.7665 101.424 47.0446L106.104 47.137ZM85.7926 74.9222C86.1516 75.8028 86.6573 76.4106 87.3088 76.7442C88.1751 79.0093 89.5362 80.057 91.3921 79.8875L91.8651 79.7951C92.6042 79.6048 93.3115 79.1749 93.9863 78.5046L94.0832 78.443C94.1833 78.302 94.2926 78.1603 94.4128 78.0193C95.0116 77.4091 95.4497 76.4823 95.7274 75.2381C96.0632 73.0986 95.8205 71.4222 94.9984 70.2072L103.952 70.1764C103.722 72.4592 103.143 74.3983 102.215 75.9931C105.568 77.8367 109.881 79.4292 115.155 80.7697L91.9311 80.1071C91.0027 80.5902 90.0116 80.8313 88.9568 80.8313C88.4504 80.8313 87.9758 80.7789 87.5337 80.6734C85.6134 78.9761 85.0325 77.0586 85.7926 74.9222ZM91.2641 69.9568C92.0652 69.6433 92.7935 69.6641 93.4473 70.0185C94.5873 70.7119 95.1147 72.2935 95.0294 74.7643L94.9053 75.4885C94.5664 77.1217 93.8917 78.1903 92.8811 78.6934C92.8369 78.6934 92.8051 78.6934 92.7842 78.6934C92.4895 78.7142 92.1831 78.7142 91.8651 78.6934C89.5873 78.2951 88.6078 76.4838 88.9258 73.2581C89.2826 71.7273 90.0209 70.6579 91.14 70.0493C91.1609 70.0085 91.202 69.9776 91.2641 69.9568ZM134.517 82.1526C133.886 81.8806 133.317 81.3768 132.81 80.6426L129.929 82.3105C129.487 82.8113 129.372 83.5023 129.584 84.3829C129.605 84.4469 129.636 84.5 129.677 84.5409C129.762 84.7512 129.869 84.9507 129.995 85.138C131.133 87.0663 132.44 88.3028 133.916 88.8475C134.655 88.8036 135.046 88.2481 135.087 87.1796L134.517 82.1526ZM142.617 81.5247C142.809 80.3305 142.555 79.7119 141.857 79.668L139.329 79.6063C139.182 79.8583 139.033 80.0994 138.883 80.3305C138.441 81.0216 137.956 81.5339 137.429 81.8675L137.681 86.9908C137.955 87.8714 138.536 88.0078 139.422 87.3991C140.014 86.7928 140.574 86.0393 141.101 85.138C141.711 84.0694 142.206 82.9284 142.586 81.7134C142.586 81.6495 142.597 81.5863 142.617 81.5247ZM136.828 79.5447C136.722 79.3544 136.595 79.2597 136.448 79.2597C136.3 79.2597 136.163 79.3544 136.037 79.5447C135.951 79.7527 135.909 79.9823 135.909 80.2342C135.909 80.4862 135.951 80.7057 136.037 80.8929C136.163 81.0832 136.3 81.178 136.448 81.178C136.595 81.178 136.722 81.0832 136.828 80.8929C136.954 80.7057 137.018 80.4862 137.018 80.2342C137.018 79.9823 136.955 79.7527 136.828 79.5447ZM139.298 75.7697C139.171 75.6025 139.033 75.5193 138.883 75.5193C138.736 75.5193 138.621 75.6025 138.538 75.7697C138.411 75.9391 138.348 76.1495 138.348 76.4014C138.348 76.6533 138.411 76.8621 138.538 77.0293C138.621 77.2165 138.736 77.3105 138.883 77.3105C139.033 77.3105 139.171 77.2165 139.298 77.0293C139.381 76.8621 139.422 76.6533 139.422 76.4014C139.422 76.1495 139.381 75.9391 139.298 75.7697ZM133.314 78.5355C133.464 78.5355 133.601 78.4415 133.726 78.2543C133.811 78.0871 133.854 77.8783 133.854 77.6264C133.854 77.3952 133.811 77.1857 133.726 76.9985C133.601 76.829 133.464 76.7442 133.314 76.7442C133.167 76.7442 133.052 76.829 132.969 76.9985C132.843 77.1857 132.779 77.3952 132.779 77.6264C132.779 77.8783 132.843 78.0871 132.969 78.2543C133.052 78.4415 133.167 78.5355 133.314 78.5355ZM133.663 71.0239C133.537 71.2342 133.473 71.4861 133.473 71.7789C133.473 72.0716 133.537 72.3236 133.663 72.5339C133.79 72.765 133.949 72.8806 134.14 72.8806C134.309 72.8806 134.466 72.765 134.614 72.5339C134.74 72.3236 134.804 72.0716 134.804 71.7789C134.804 71.4861 134.74 71.2342 134.614 71.0239C134.466 70.7951 134.309 70.681 134.14 70.681C133.95 70.681 133.791 70.7951 133.663 71.0239ZM137.018 70.681C136.912 70.8682 136.859 71.0778 136.859 71.3089C136.859 71.5609 136.912 71.7804 137.018 71.9676C137.124 72.1348 137.25 72.218 137.398 72.218C137.545 72.218 137.672 72.1348 137.778 71.9676C137.884 71.7804 137.937 71.5609 137.937 71.3089C137.937 71.0778 137.884 70.8682 137.778 70.681C137.672 70.5115 137.545 70.4268 137.398 70.4268C137.25 70.4268 137.124 70.5115 137.018 70.681ZM140.244 67.4722H140.213L139.232 71.0585C139.759 72.0624 140.066 73.235 140.151 74.5755L142.493 75.5193C143.062 75.7504 143.356 75.3521 143.377 74.3251C143.377 74.2404 143.377 74.1572 143.377 74.0747C143.356 74.0108 143.346 73.9576 143.346 73.9168C143.199 71.4877 142.703 69.3289 141.857 67.4414C141.836 67.4414 141.826 67.4314 141.826 67.4106C141.131 66.5732 140.604 66.594 140.244 67.4722ZM127.715 75.5501C127.715 76.0532 127.736 76.557 127.777 77.0601C128.054 78.1079 128.423 78.5162 128.886 78.2851L131.321 76.3051C131.3 76.0123 131.29 75.7096 131.29 75.396C131.29 74.0324 131.501 72.8267 131.922 71.7789L130.34 68.7935C130.319 68.7727 130.309 68.7527 130.309 68.7319C129.867 67.9561 129.245 68.302 128.444 69.7681C127.959 71.527 127.715 73.4545 127.715 75.5501ZM137.778 62.5069C137.059 62.1733 136.321 62.0061 135.564 62.0061C134.762 62.0061 134.002 62.1933 133.283 62.5685C132.122 63.8266 131.754 64.8012 132.178 65.4923C132.178 65.5362 132.199 65.5786 132.24 65.6194L132.302 65.681L134.707 68.5739C135.025 68.4684 135.364 68.416 135.723 68.416C135.932 68.416 136.143 68.426 136.355 68.4468L138.22 64.926C138.58 63.8782 138.432 63.0716 137.778 62.5069ZM137.336 58.3582C136.702 58.3582 136.089 58.4414 135.498 58.6086C135.922 58.5261 136.355 58.4853 136.797 58.4853C137.958 58.4853 139.044 58.7781 140.054 59.3636C141.427 60.1802 142.672 61.5423 143.788 63.4507C145.264 65.9445 146.172 68.8259 146.511 72.0948L146.67 75.2997C146.67 75.3205 146.67 75.3405 146.67 75.3613C146.67 75.8028 146.67 76.2535 146.67 76.7134L146.383 79.51C145.982 82.3814 145.117 84.9276 143.788 87.1488C142.692 89.0363 141.469 90.3884 140.12 91.205C139.086 91.8113 137.978 92.1141 136.797 92.1141C135.595 92.1141 134.466 91.8005 133.411 91.1742C132.062 90.3552 130.838 89.0132 129.739 87.1488C128.708 85.4307 127.949 83.5139 127.463 81.3976C127.949 83.7034 128.76 85.7674 129.898 87.5879C130.847 89.1387 131.891 90.3344 133.031 91.1742C133.243 91.3206 133.464 91.467 133.695 91.6133C134.814 92.3044 136.027 92.6495 137.336 92.6495C138.664 92.6495 139.887 92.3044 141.004 91.6133C141.216 91.4878 141.427 91.3514 141.636 91.205C142.755 90.3652 143.8 89.1595 144.769 87.5879C146.817 84.2774 147.841 80.255 147.841 75.5193C147.841 70.8043 146.817 66.7712 144.769 63.4198C143.906 62.0154 142.968 60.8944 141.954 60.057C140.561 58.9244 139.022 58.3582 137.336 58.3582ZM212.797 75.0185C212.712 74.8721 212.628 74.7989 212.545 74.7989C212.46 74.7989 212.376 74.8721 212.293 75.0185C212.208 75.2057 212.165 75.4153 212.165 75.6464C212.165 75.8775 212.208 76.0871 212.293 76.2743C212.376 76.4615 212.46 76.5555 212.545 76.5555C212.628 76.5555 212.712 76.4615 212.797 76.2743C212.882 76.0871 212.925 75.8775 212.925 75.6464C212.925 75.4153 212.882 75.2057 212.797 75.0185ZM212.545 71.0585C212.628 70.933 212.669 70.775 212.669 70.5847C212.669 70.3975 212.628 70.2404 212.545 70.1148C212.46 69.9892 212.376 69.926 212.293 69.926C212.208 69.926 212.122 69.9892 212.037 70.1148C211.954 70.2404 211.913 70.3975 211.913 70.5847C211.913 70.775 211.954 70.933 212.037 71.0585C212.122 71.2257 212.208 71.3089 212.293 71.3089C212.376 71.3089 212.46 71.2257 212.545 71.0585ZM214.98 63.9514C214.179 62.9268 213.621 62.9268 213.305 63.9514L212.797 66.436C213.493 67.463 213.883 68.5947 213.968 69.8297L215.298 68.9206C215.719 68.584 215.909 67.9021 215.868 66.8752C215.742 65.745 215.445 64.7704 214.98 63.9514ZM216.562 74.9838V74.7989C216.562 74.6502 216.562 74.5239 216.562 74.4214C216.436 73.8128 216.119 73.7604 215.612 74.2635L214.666 75.0801L214.538 76.7134L215.042 80.8621C216.015 79.6472 216.521 77.688 216.562 74.9838ZM217.101 60.369C217.016 60.3482 216.942 60.3281 216.88 60.3073C216.415 60.2226 215.908 60.2958 215.36 60.5269H215.422L215.232 60.5885C216.9 60.4861 218.261 61.7118 219.315 64.2673C220.349 66.7812 220.867 69.8197 220.867 73.3814C220.867 76.923 220.329 79.9399 219.253 82.4338C218.199 84.9477 216.921 86.205 215.422 86.205C215.127 86.205 214.685 86.0686 214.096 85.7967C214.771 86.4261 215.276 86.7728 215.612 86.8367C215.697 86.8367 215.804 86.8367 215.93 86.8367C217.553 86.8367 218.935 85.527 220.075 82.9076C221.236 80.309 221.817 77.1657 221.817 73.4777C221.817 69.7897 221.236 66.6363 220.075 64.0169C219.189 62.0469 218.198 60.8312 217.101 60.369ZM105.631 31.5168C105.44 31.5168 105.281 31.5268 105.154 31.5476C90.8119 34.4598 80.5824 37.9282 74.4656 41.9521C85.2636 37.4683 96.0531 34.325 106.833 32.5222C106.981 32.4813 107.138 32.449 107.306 32.4259C115.429 31.6732 123.867 31.7263 132.62 32.5838C124.076 31.5152 115.143 31.1601 105.821 31.5168C105.757 31.5168 105.693 31.5168 105.631 31.5168ZM41.4 54.3982C41.6327 55.2996 42.7083 55.7811 44.6263 55.8428L62.7897 56.2203C65.8066 56.2411 67.0296 55.4768 66.4581 53.9283L68.2961 53.2041L36.1146 52.5762L41.241 53.4853C38.6685 55.1825 38.6158 56.1794 41.082 56.4745C40.0715 55.4884 40.1777 54.7965 41.4 54.3982ZM35.7346 76.0239C33.8577 76.6302 31.9173 77.0062 29.9141 77.1526L68.9902 78.1618C69.1585 78.1387 69.3175 78.1271 69.4672 78.1271C71.5325 77.9399 72.5019 76.3798 72.3755 73.4468L76.7419 72.5339L24.5666 71.5593L32.2252 72.7226C32.3524 74.7126 33.5219 75.8136 35.7346 76.0239ZM15.6129 68.7627H15.6439C15.0956 68.0924 14.4108 67.7573 13.5887 67.7573C12.5751 67.7573 11.6475 68.2596 10.8045 69.2635C9.98238 70.3112 9.47595 71.5578 9.28439 73.0039C9.13703 74.1572 9.23242 75.1741 9.57134 76.0547C9.61244 73.4969 10.1918 71.7789 11.3086 70.9006C10.298 74.2727 11.2372 76.4939 14.1277 77.5647C14.4434 77.3336 14.7381 77.0393 15.0118 76.6826C15.1181 76.557 15.2119 76.4415 15.2949 76.3359C15.3182 76.3151 15.3298 76.2951 15.3298 76.2743H15.2949C16.2667 75.2473 16.7941 74.0108 16.877 72.5647C16.9833 71.057 16.5622 69.7897 15.6129 68.7627ZM12.7007 71.151C13.1249 69.8721 13.8423 69.1071 14.8528 68.8551C15.6749 69.6102 16.086 70.7943 16.086 72.4068C16.086 74.1479 15.5377 75.3744 14.4418 76.0855C12.7123 75.5408 12.1012 74.0015 12.6076 71.4669C12.6286 71.3413 12.6596 71.2357 12.7007 71.151ZM36.5605 40.6925L37.4757 42.2988C39.8179 39.3427 52.1375 35.9159 74.4346 32.0175C52.706 35.3512 38.9531 38.2949 33.1753 40.8504L36.5605 40.6925ZM188.53 10.519C188.613 10.5829 188.707 10.6561 188.813 10.7386C191.724 13.0652 194.667 15.5706 197.643 18.254C197.769 18.3773 197.906 18.5136 198.054 18.6623C202.228 23.2286 205.361 27.6069 207.45 31.798L186.409 14.479C190.566 21.5414 193.836 28.687 196.22 35.9159C196.22 35.9598 196.23 36.0122 196.251 36.0738L196.596 37.1408L195.933 36.6709H169.482C165.791 36.6501 163.217 35.8334 161.762 34.2209C162.098 35.3712 162.793 36.1678 163.848 36.6092C161.612 35.9598 159.514 34.7433 157.554 32.9613C159.325 35.7271 161.182 37.2048 163.123 37.3951C165.062 37.5823 166.105 37.6339 166.252 37.5492L196.154 37.6146L218.016 38.0538L217.322 37.2988C217.237 37.1932 217.153 37.1 217.07 37.0176C204.266 22.5799 194.636 13.2756 188.181 9.10527C186.05 8.51976 184.057 8.12145 182.201 7.91112C182.116 7.89032 182.032 7.88031 181.949 7.88031L181.98 7.91112L181.662 7.88031C175.778 7.18924 169.81 6.93809 163.755 7.1253C162.152 7.21004 161.308 8.23701 161.223 10.207C161.665 9.18001 162.677 8.63378 164.259 8.56983C163.563 8.69541 162.889 9.10527 162.235 9.79865C161.624 10.405 161.308 11.0121 161.285 11.6207C161.285 11.8287 161.085 14.6777 160.684 20.1685C160.135 25.9952 159.461 30.0299 158.66 32.2718L159.99 33.5892C160.558 30.7209 161.223 29.1493 161.983 28.8742C162.045 28.8534 162.108 28.8334 162.173 28.8126L169.827 28.9397C171.241 28.8758 172.276 29.1154 172.93 29.6601C173.036 29.7448 173.131 29.8396 173.217 29.9451C173.721 30.5098 174.099 31.4112 174.353 32.6493V32.6801C174.585 33.7071 174.522 34.4505 174.163 34.9105C173.953 35.1824 173.638 35.3612 173.217 35.4459C173.005 35.4867 172.761 35.5075 172.488 35.5075L171.728 35.5384C173.056 35.184 173.763 34.5137 173.849 33.5276C173.277 31.5576 172.803 30.6886 172.426 30.9197C171.772 32.6994 170.621 33.7471 168.974 34.063L162.111 34.0938C164.261 35.4344 167.087 36.1046 170.588 36.1046L194.571 36.043C194.551 35.9582 194.53 35.8851 194.509 35.8234C190.965 25.1354 186.451 16.2394 180.968 9.13609L180.902 8.82407L186.219 9.57908C187.021 9.70235 187.791 10.0159 188.53 10.519ZM166.477 12.4373L177.835 12.784C180.829 17.499 183.56 22.9251 186.029 29.063L177.773 28.9089L177.234 30.1339C176.916 26.8442 175.577 24.885 173.217 24.2556C172.899 24.15 172.571 24.0876 172.236 24.0668C172.129 24.046 172.024 24.036 171.918 24.036L162.553 23.8472L163.247 13.9165C163.268 13.7263 163.311 13.5483 163.375 13.3811C163.608 12.6469 164.42 12.3118 165.81 12.3757C166.023 12.3757 166.244 12.3965 166.477 12.4373Z" fill="black"/>
<path d="M127.019 79.5098C127.06 79.3226 127.071 79.1655 127.05 79.0399C127.029 78.9782 127.009 78.9051 126.988 78.8203C126.988 79.0306 126.999 79.261 127.019 79.5098Z" fill="white"/>
</g>
</svg>
