<svg width="69" height="49" viewBox="0 0 69 49" fill="none" xmlns="http://www.w3.org/2000/svg">
<g opacity="0.13">
<path d="M16.4638 29.3152C16.4383 29.5501 16.4666 29.74 16.394 29.8763C16.2002 30.2407 15.9881 30.6007 15.7405 30.9303C12.2141 35.6193 7.58156 38.4185 1.70122 38.9402C0.417925 39.0543 -0.0534106 39.442 0.00474474 40.7547C0.101117 42.9396 0.0789621 45.134 0.0102833 47.3212C-0.0273792 48.5181 0.426787 48.8521 1.57937 48.7696C11.9648 48.0241 19.8424 43.1551 25.2868 34.3404C29.3422 27.7744 29.8074 20.485 29.1954 13.0672C28.5806 5.61552 21.9509 -0.156816 14.4356 0.00324964C6.71865 0.167192 0.324876 6.34939 0.0667771 13.8957C-0.202953 21.7816 5.32125 28.3366 12.9335 29.1319C14.0883 29.2526 15.2559 29.2554 16.4638 29.3152ZM55.5005 29.7517C55.5592 29.6027 55.501 29.8874 55.3509 30.1095C51.8721 35.2543 47.1001 38.3443 40.8769 38.9164C39.3909 39.0532 38.9705 39.545 39.037 40.9546C39.1372 43.0781 39.1117 45.2116 39.0469 47.3384C39.0104 48.5303 39.4502 48.8621 40.6155 48.774C51.722 47.9355 59.8505 42.542 65.1676 32.8173C68.3938 26.917 68.6231 20.5039 68.3473 14.0065C68.0471 6.93814 62.6431 1.02291 55.6888 0.164977C48.4072 -0.733385 41.6944 3.59891 39.6889 10.4901C37.6806 17.3906 40.8293 24.8439 47.3477 27.7351C49.8506 28.8456 52.7351 29.0964 55.5005 29.7517Z" fill="white"/>
<path d="M16.4637 29.3152C15.2558 29.2554 14.0888 29.2526 12.9334 29.1319C5.32117 28.3366 -0.203038 21.7816 0.0666924 13.8957C0.324792 6.34939 6.71856 0.167192 14.4355 0.00324965C21.9508 -0.156816 28.5806 5.61552 29.1959 13.0666C29.8079 20.4845 29.3427 27.7738 25.2873 34.3399C19.8428 43.1551 11.9647 48.0241 1.57984 48.769C0.426702 48.8521 -0.0274639 48.5181 0.0101986 47.3212C0.0788773 45.134 0.100478 42.9402 0.00465999 40.7547C-0.0529415 39.442 0.418394 39.0543 1.70114 38.9402C7.58148 38.4185 12.214 35.6193 15.7404 30.9303C15.988 30.6007 16.2001 30.2407 16.394 29.8763C16.466 29.74 16.4383 29.5506 16.4637 29.3152Z" fill="#EE2852"/>
<path d="M55.5019 29.7505C52.7365 29.0953 49.852 28.8444 47.3486 27.7344C40.8296 24.8438 37.6815 17.3905 39.6898 10.4894C41.6953 3.59774 48.4081 -0.734006 55.6897 0.164357C62.6445 1.02229 68.0486 6.93752 68.3482 14.0059C68.624 20.5032 68.3942 26.9158 65.1685 32.8167C59.8514 42.5414 51.723 47.9349 40.6164 48.7734C39.4511 48.8615 39.0113 48.5297 39.0479 47.3378C39.1132 45.2115 39.1387 43.078 39.0379 40.954C38.9714 39.5444 39.3918 39.0526 40.8778 38.9158C47.1004 38.3431 51.873 35.2537 55.3518 30.1088C55.5025 29.8862 55.5607 29.6015 55.5019 29.7505Z" fill="#EE2852"/>
</g>
</svg>
