<svg width="28" height="27" viewBox="0 0 28 27" fill="none" xmlns="http://www.w3.org/2000/svg">
<path d="M14.4797 0C13.8999 0 13.3201 0.300066 13.0201 0.905283L9.699 7.63896L2.26855 8.71717C0.936055 8.91043 0.402039 10.5532 1.36835 11.494L6.74411 16.7325L5.47264 24.1324C5.24378 25.4598 6.64239 26.4719 7.83248 25.8464L14.4797 22.3575V0Z" fill="#FFC403"/>
<path d="M14.3953 0C14.9751 0 15.5549 0.300066 15.8549 0.905283L19.176 7.63896L26.6064 8.71717C27.9389 8.91043 28.473 10.5532 27.5066 11.494L22.1309 16.7325L23.4024 24.1324C23.6312 25.4598 22.2326 26.4719 21.0425 25.8464L14.3953 22.3575V0Z" fill="#FFC403"/>
</svg>
