<svg width="20" height="20" viewBox="0 0 20 20" fill="none" xmlns="http://www.w3.org/2000/svg">
<path d="M20 10.0011C19.9992 15.5113 15.4939 20.007 9.97891 19.9999C4.48965 19.9929 -0.000780843 15.4926 1.01847e-07 9.99798C0.000781047 4.48776 4.50527 -0.00631808 10.0211 -6.97864e-05C15.5111 0.0061785 20 4.50573 20 10.0011ZM2.50605 8.8272C3.11285 8.8272 3.6845 8.81705 4.25537 8.82955C5.69699 8.86001 6.91605 8.37733 7.93909 7.34323C9.09488 6.1748 10.934 6.16309 12.0679 7.35729C13.6002 8.97169 15.5283 8.89672 17.4947 8.79674C17.0902 5.65307 14.1851 2.36022 9.95236 2.3899C5.66263 2.42036 2.85826 5.80928 2.50605 8.8272ZM17.0457 12.7871C15.4299 12.0084 13.7735 12.2825 12.6755 13.4978C11.7204 14.5545 11.4651 16.2556 12.107 17.2874C14.0476 16.9461 16.5467 14.6779 17.0457 12.7871ZM2.95588 12.7847C3.42366 14.6615 6.17649 17.139 7.92112 17.2718C8.53651 16.0284 8.24834 14.4296 7.22296 13.3892C6.12339 12.2724 4.54041 12.0435 2.95588 12.7847ZM9.97735 12.3419C10.9512 12.3528 11.7431 11.5749 11.7509 10.5994C11.7587 9.64026 10.9965 8.85142 10.043 8.83111C9.06833 8.81002 8.27021 9.577 8.2499 10.5541C8.2296 11.5257 9.00664 12.3302 9.97735 12.3419Z" fill="#EE2852"/>
<path d="M10.5802 10.5838C10.5794 10.273 10.3264 10.0113 10.0172 10.002C9.69306 9.9918 9.41817 10.262 9.41895 10.5885C9.42051 10.8994 9.67353 11.161 9.98201 11.1704C10.3061 11.1805 10.5818 10.9103 10.5802 10.5838Z" fill="white"/>
<path d="M10.5802 10.5838C10.581 10.9103 10.3061 11.1805 9.98201 11.1704C9.67276 11.1602 9.41973 10.8994 9.41895 10.5885C9.41739 10.262 9.69306 9.9918 10.0172 10.002C10.3264 10.0113 10.5794 10.2722 10.5802 10.5838Z" fill="#EE2852"/>
</svg>
