<svg width="35" height="34" viewBox="0 0 35 34" fill="none" xmlns="http://www.w3.org/2000/svg">
<path d="M17.4327 0.666779C18.016 0.744129 18.6169 0.795696 19.1913 0.907424C25.7923 2.24816 30.0163 6.09849 31.8897 12.3982C32.0487 12.9225 32.1194 13.464 32.2166 14.0054C32.3492 14.7531 31.8632 15.4235 31.112 15.5352C30.3963 15.647 29.76 15.1399 29.6009 14.4093C29.4065 13.5241 29.2563 12.6045 28.9205 11.7622C27.0648 7.15561 23.6361 4.28505 18.6169 3.4342C11.786 2.29973 5.2822 6.47664 3.55903 12.9741C1.70331 19.97 6.22773 27.2151 13.465 28.8309C13.8008 28.9082 14.1366 28.9512 14.4724 29.0286C15.1617 29.1833 15.6124 29.8021 15.5063 30.4638C15.4003 31.1342 14.8082 31.6241 14.1013 31.5553C12.8465 31.4264 11.6358 31.0912 10.4782 30.6099C5.09663 28.3496 1.7475 24.4219 0.75778 18.7925C-0.170079 13.5155 1.42054 8.90888 5.30871 5.11872C7.76533 2.70367 10.7698 1.31136 14.2073 0.821479C14.6226 0.761318 15.038 0.718345 15.4445 0.666779C16.1072 0.666779 16.77 0.666779 17.4327 0.666779Z" fill="#EE2852"/>
<path d="M24.8391 33.6712C24.0791 33.4993 23.3015 33.3962 22.568 33.1555C18.8124 31.9007 16.3204 28.1535 16.6562 24.329C17.0097 20.2896 20.076 17.0237 24.0968 16.3963C25.3781 16.1986 26.6418 16.2502 27.8966 16.5854C28.6654 16.7916 29.0807 17.4448 28.8951 18.1496C28.7007 18.8715 28.0203 19.2668 27.225 19.0692C23.7256 18.1753 20.3853 20.2122 19.5017 23.375C18.5561 26.7182 20.6593 30.1388 24.141 30.9467C27.5608 31.746 31.0071 29.5888 31.7141 26.2026C31.8289 25.6611 32.1029 25.2744 32.6507 25.1025C33.1368 24.9564 33.5786 25.0509 33.9321 25.3947C34.1176 25.5752 34.2237 25.8416 34.3562 26.0651C34.3562 26.237 34.3562 26.4088 34.3562 26.5807C34.3297 26.6581 34.3032 26.744 34.2767 26.8214C33.4637 30.0185 31.4666 32.1757 28.2766 33.2415C27.6403 33.4563 26.951 33.5251 26.2883 33.6712C25.8111 33.6712 25.3251 33.6712 24.8391 33.6712Z" fill="#EE2852"/>
<path d="M17.7591 11.3922C17.7591 12.9564 17.7591 14.5291 17.7591 16.0933C17.7591 16.5145 17.6177 16.8668 17.3173 17.1676C15.7178 18.7404 14.1272 20.3218 12.5277 21.8946C12.0771 22.3415 11.5204 22.4447 10.9902 22.2126C10.4953 21.9891 10.186 21.4993 10.2125 20.9664C10.2302 20.5882 10.4158 20.296 10.6809 20.0382C12.0771 18.6631 13.4644 17.288 14.8695 15.9129C15.0374 15.7496 15.1081 15.5863 15.1081 15.3542C15.0992 12.4579 15.0992 9.55294 15.1081 6.6566C15.1081 5.71121 15.9829 5.09241 16.8666 5.38462C17.4056 5.56511 17.7503 6.0464 17.7503 6.6566C17.7679 8.22939 17.7591 9.81078 17.7591 11.3922Z" fill="#EE2852"/>
<path d="M25.6509 25.2302C26.7997 24.0699 27.8954 22.9441 29.0177 21.8354C29.6804 21.1736 30.3609 20.529 31.0325 19.8844C31.6334 19.3086 32.4287 19.2828 32.9766 19.8071C33.5333 20.3399 33.4979 21.1306 32.8882 21.7236C31.006 23.5371 29.1326 25.3591 27.2503 27.1639C26.2606 28.1093 24.8733 28.1007 23.8835 27.1554C23.2738 26.5709 22.6641 25.9779 22.0632 25.3763C21.4799 24.8005 21.4534 24.0098 22.0013 23.4855C22.5492 22.9613 23.3445 22.987 23.9454 23.5629C24.4668 24.0699 25.0058 24.5942 25.6509 25.2302Z" fill="#EE2852"/>
</svg>
