<svg width="279" height="114" viewBox="0 0 279 114" fill="none" xmlns="http://www.w3.org/2000/svg">
<g opacity="0.06">
<path d="M212.093 4.797L211.803 4.76156C204.374 3.46203 196.071 2.41407 186.896 1.61681C178.229 0.870043 168.786 0.339422 158.566 0.026718H158.383C136.706 -0.16551 119.337 0.679586 106.275 2.56024C106.152 2.56024 106.043 2.57175 105.944 2.59567C101.723 3.53467 98.3862 5.06452 95.9343 7.18435L95.7513 7.36595C88.0306 13.7263 80.4929 20.4233 73.1381 27.4569C72.7249 27.844 72.0331 28.3383 71.0629 28.9407C70.1141 29.4961 69.434 29.9772 69.0234 30.3846L68.0371 31.3635C53.9587 32.6391 37.8398 35.9876 19.6823 41.409L19.3877 41.4799C17.4214 42.1327 15.5649 43.0009 13.8181 44.0842C11.875 45.2651 10.321 46.554 9.15446 47.951C6.65527 53.1066 5.1754 57.8042 4.71394 62.0448C3.45274 62.6002 2.45753 63.4426 1.7283 64.5739C1.07405 65.6103 0.587603 66.9834 0.268957 68.693L0.161849 69.384C-0.275509 72.4198 0.173452 75.0445 1.50962 77.2592L1.6569 77.5116L1.94698 78.3797C2.60123 80.5501 2.74762 82.5388 2.38434 84.3459L1.39805 88.7884C1.13296 90.4512 1.57032 91.8242 2.71013 92.9076C3.82851 93.968 5.45656 94.558 7.59247 94.6793L21.7575 95.1842C23.6498 100.027 26.3319 103.678 29.804 106.138C10.6495 107.003 1.07227 107.991 1.07227 109.101C1.07227 110.427 14.6063 111.548 41.6751 112.463C68.7672 113.426 101.468 113.907 139.777 113.907C178.107 113.907 210.806 113.426 237.875 112.463C264.967 111.548 278.513 110.427 278.513 109.101C278.513 108.041 269.969 107.101 252.879 106.279C255.161 103.726 257.005 99.0509 258.413 92.2565C264.848 90.0419 267.993 86.6093 267.847 81.9586C267.847 81.8611 267.847 81.777 267.847 81.7061L269.887 76.0677C273.477 70.5755 273.768 66.3473 270.757 63.3824C270.71 63.3354 270.661 63.2867 270.614 63.2362C270.808 53.8401 268.829 46.9615 264.679 42.6005C264.628 42.5535 264.579 42.5057 264.531 42.4587L263.331 37.1436C261.849 33.3141 257.018 31.1819 248.836 30.7478C241.626 23.351 233.131 16.0871 223.348 8.95604L222.799 8.52198C219.741 6.69093 216.172 5.44986 212.093 4.797ZM215.846 8.15878L217.158 8.73901C218.759 9.29443 221.489 11.1131 225.348 14.1958C232.194 19.3045 238.604 24.7861 244.578 30.6415C245.354 31.3856 246.143 32.1563 246.943 32.9536C249.588 35.3631 252.089 37.3385 254.445 38.8799L249.71 33.2061C255.563 33.9032 258.986 35.3835 259.979 37.6486L261.546 43.4686C263.536 45.7337 264.895 47.9492 265.625 50.1168L264.277 50.1567L264.75 53.1199C263.051 50.4207 260.769 48.866 257.904 48.4559C252.2 48.1662 242.478 48.106 228.735 48.2743C229.657 50.9965 230.071 54.0084 229.976 57.3099C229.464 53.9145 228.384 50.8672 226.736 48.168L225.642 48.0573C225.618 48.4674 225.606 48.8784 225.606 49.2886C225.532 49.891 225.142 50.1921 224.437 50.1921L222.728 50.1567C221.877 50.0123 221.525 49.1442 221.67 47.5523H221.563C221.271 47.5762 221.102 47.6126 221.054 47.6631C220.98 47.71 220.931 47.7942 220.907 47.9155L185.365 47.8801C184.589 46.2413 183.631 44.3128 182.491 42.0955C183.776 49.3949 184.104 55.1901 183.473 59.4802C183.205 55.1423 182.172 51.0709 180.376 47.2644C176.879 47.2883 173.579 47.3238 170.473 47.3707C145.225 47.8553 131.947 49.6987 130.637 52.9028C136.195 60.5149 138.137 65.4907 136.461 67.8293L145.967 67.7186C148.951 56.6367 153.588 50.6129 159.878 49.6474C164.076 49.3346 167.607 51.3349 170.473 55.649C172.463 58.6139 174.138 62.6976 175.498 67.9002L183.326 67.754C184.102 69.0562 184.248 71.5747 183.763 75.3103C185.343 73.4057 185.695 70.8749 184.821 67.7186L229.645 66.7796C230.181 67.4289 230.388 69.9111 230.266 74.2251C231.089 72.2258 231.478 70.7198 231.43 69.7073C231.383 68.6948 231.274 67.7186 231.105 66.7796L238.022 66.6334C240.328 56.1069 243.8 50.7343 248.438 50.5155C248.534 50.4916 248.642 50.48 248.764 50.48C250.585 50.2878 252.382 51.3243 254.155 53.5894C256.217 56.1911 257.636 59.9737 258.413 64.937L267.374 64.5739V64.6093C267.493 64.6828 267.613 64.7687 267.736 64.8662C269.119 65.9735 269.702 67.599 269.485 69.7428C269.485 69.8163 269.485 69.8889 269.485 69.9598L269.266 70.8633C268.999 72.2834 268.465 73.6564 267.664 74.9825L265.625 80.7317C266.011 83.5992 263.753 86.2966 258.85 88.8239C259.41 83.6443 259.106 78.8023 257.94 74.296C257.964 74.1746 258 74.0675 258.051 73.9727C258.804 71.3213 258.562 68.755 257.324 66.2747C256.717 60.0826 254.579 57.0823 250.911 57.2745C250.863 57.2745 250.815 57.286 250.768 57.3099C246.76 57.263 243.07 60.3466 239.696 66.5626C239.624 66.707 239.564 66.8398 239.517 66.9612C239.517 66.9851 239.529 67.0206 239.553 67.0675C239.746 67.4546 239.854 67.925 239.879 68.4804C239.926 69.6347 239.573 71.153 238.821 73.0337C238.797 73.0806 238.774 73.14 238.749 73.2108C238.288 74.1764 237.815 74.8514 237.33 75.235L176.774 77.1174C176.87 81.8151 176.602 84.8748 175.971 86.2948C176.747 88.1019 177.1 89.8134 177.028 91.4283L228.043 90.5601L235.875 77.7685C234.587 81.3092 233.87 84.5125 233.724 87.3799C234.501 91.3778 234.307 93.5826 233.144 93.9928H232.56C215.395 95.0053 196.266 95.753 175.172 96.234C175.779 93.1007 176.033 89.8249 175.935 86.4055C175.911 86.332 175.911 86.2709 175.935 86.2239C175.911 85.719 175.888 85.2008 175.864 84.6693C175.694 82.1384 175.353 79.5376 174.842 76.865L174.699 75.6691C175.16 73.3101 175.001 71.2017 174.221 69.3441C174.197 69.2733 174.174 69.2006 174.15 69.1271C173.326 65.5128 172.1 62.7065 170.473 60.7071C168.214 57.9141 165.168 56.7341 161.333 57.1682C156.406 57.4313 152.11 61.298 148.444 68.7683L148.261 69.167C147.726 72.876 146.389 76.0916 144.253 78.8138L141.196 88.9346C142.336 93.2956 140.623 95.5962 136.06 95.8353C135.941 95.8353 135.82 95.8469 135.698 95.8708L35.0478 93.0538L9.70339 91.57C6.62136 91.3547 5.18879 90.2474 5.40568 88.2481L5.69577 86.2239C5.64846 88.3677 6.69276 89.6194 8.82868 89.9799C8.99826 90.0065 9.16785 90.0313 9.33744 90.0552C49.9287 92.1989 92.3033 93.5481 136.461 94.1035C139.133 93.6934 139.935 91.849 138.867 88.5714L142.031 77.9103C143.198 77.284 144.376 75.5982 145.565 72.8521C145.613 72.8521 145.662 72.8406 145.713 72.8166C146.781 72.5039 147.302 71.5517 147.275 69.9598L107.404 69.9952L122.551 71.4436C121.361 72.7192 120.657 74.4404 120.44 76.6081L131.838 78.021L5.69577 75.5982L6.09742 75.6336L11.4127 78.6721C12.5043 77.4912 13.695 76.8756 14.9829 76.8251C16.5119 76.7542 17.7749 77.1041 18.7719 77.8748C19.0129 78.0431 19.2298 78.2362 19.4234 78.455L99.8661 80.838C99.842 80.8619 99.817 80.8849 99.7902 80.9088C98.288 82.258 97.3651 83.8614 97.0232 85.719C96.6841 87.55 97.025 89.1144 98.0452 90.414C98.5299 91.0429 99.1118 91.5257 99.7902 91.8623L15.4917 89.1516C15.3462 89.1986 15.2123 89.2464 15.09 89.2934C14.7509 89.3908 14.4117 89.4395 14.0725 89.4395C13.4415 89.4395 12.8961 89.2712 12.4346 88.9346L8.57429 88.6821C8.38061 88.6582 8.19763 88.6219 8.02537 88.5714C6.81147 88.2348 6.07243 87.2471 5.80734 85.6083L6.3875 81.4182C6.48569 79.8263 6.18221 78.3204 5.47709 76.9004C5.40568 76.756 5.33249 76.6107 5.25841 76.4663C4.31229 75.3829 3.86332 73.6476 3.91063 71.262L3.9508 70.1768C3.9508 67.3838 5.18879 65.4198 7.66388 64.2859L38.9796 65.6236C39.4884 64.1531 39.4643 61.6949 38.9082 58.2489L82.7868 58.7583L80.3456 63.8873C79.9591 64.8768 80.093 65.6475 80.7473 66.1994C81.3783 66.7548 82.3735 66.9966 83.7329 66.9258L131.762 67.1029C132.491 66.9851 133.038 66.6361 133.404 66.0576C133.768 65.4553 133.852 64.7572 133.659 63.9626C132.954 62.1794 132.309 60.7204 131.726 59.5865C130.95 58.0691 130.064 56.7075 129.071 55.5028C127.128 53.0224 124.967 51.7335 122.586 51.6361C122.515 51.6122 122.442 51.6006 122.368 51.6006C122.272 51.6006 121.618 51.6006 120.404 51.6006L114.723 51.5298C115.208 50.1567 115.888 49.06 116.762 48.2389C117.515 47.5656 118.534 47.0004 119.819 46.5425C120.111 46.4689 120.415 46.3848 120.73 46.29C118.424 46.771 116.713 47.3734 115.598 48.0971C114.333 48.9387 113.555 50.0832 113.263 51.5298L92.1453 51.4545C90.3959 51.4545 88.7938 51.9842 87.3389 53.0446C86.0268 54.0101 84.7397 55.4806 83.4785 57.4561L38.5422 56.5525C37.9594 53.5646 36.9517 51.7805 35.5209 51.202C32.1711 50.8654 29.5853 50.6244 27.7645 50.48C24.5843 50.1904 21.7557 50.0345 19.2806 50.0105C19.6198 49.2638 20.0688 48.6003 20.6284 48.0218C21.039 47.5638 21.6326 47.0341 22.4091 46.4317C22.0226 46.5761 21.6477 46.7329 21.2845 46.9012C19.5109 47.4797 18.2604 48.5161 17.5312 50.0105L12.2874 50.046C13.0166 48.5516 14.0234 47.4079 15.3087 46.6133C16.3289 45.987 18.3077 45.1446 21.2443 44.0842L21.4987 44.0488C28.6124 41.7607 36.5634 39.7968 45.3525 38.1579C51.7612 36.9771 58.3769 36.0124 65.1988 35.2657C66.6536 35.1213 68.1103 34.976 69.5679 34.8316C69.592 34.8077 69.6152 34.7962 69.6393 34.7962C90.4923 33.1104 108.991 32.3751 125.135 32.5904C141.23 32.7826 156.343 33.6135 170.473 35.0841C172.948 35.3259 175.4 35.5916 177.827 35.8813C178.265 34.5083 178.666 33.1219 179.032 31.7223C179.856 28.3738 180.438 24.9411 180.777 21.4243C181.143 17.5204 181.204 13.5208 180.96 9.42554C155.18 6.31622 128.707 6.20726 101.54 9.09778C93.527 14.2295 87.1675 18.9174 82.461 23.1606C77.7241 27.4011 74.568 30.1348 72.9909 31.3635C73.0382 31.313 73.0873 31.2643 73.1381 31.2173C73.1854 31.1465 73.2452 31.0862 73.3167 31.0357C82.0817 22.3872 90.7128 14.6892 99.21 7.94175C102.438 6.06376 106.929 4.88381 112.683 4.40279C138.053 2.61959 162.475 2.61959 185.95 4.40279L186.24 4.43823C186.46 4.43823 186.679 4.44974 186.896 4.47366C199.035 5.22043 208.685 6.4491 215.846 8.15878ZM249.527 66.7087C251.446 66.7087 253.073 68.4317 254.41 71.8776C255.769 75.344 256.449 79.5358 256.449 84.4522C256.449 89.3421 255.769 93.5215 254.41 96.9914C253.073 100.437 251.446 102.16 249.527 102.16C247.682 102.16 246.069 100.437 244.685 96.9914C244.59 96.7522 244.517 96.5112 244.466 96.2694C244.371 96.1011 244.324 95.9443 244.324 95.7999C244.371 95.9921 244.468 96.1604 244.614 96.3048C245.366 96.4731 245.705 95.7264 245.631 94.0636C245.486 92.8855 245.194 91.958 244.756 91.2821C244.176 91.3326 243.618 91.1271 243.083 90.6664C242.791 88.7645 242.646 86.6934 242.646 84.4522C242.646 79.5358 243.326 75.344 244.685 71.8776C244.929 71.2753 245.172 70.7455 245.413 70.2876C245.413 70.2371 245.438 70.2122 245.488 70.2122C246.675 67.8763 248.022 66.7087 249.527 66.7087ZM222.362 52.8275C222.606 52.9985 222.898 53.096 223.237 53.1199L224.803 53.1907C224.877 53.1907 224.95 53.1792 225.022 53.1553C225.7 52.987 225.919 52.42 225.678 51.4545C225.288 52.6123 224.524 52.9622 223.384 52.5042C224.815 51.9018 225.714 50.7928 226.079 49.1779C226.541 51.7557 226.345 53.2377 225.495 53.6248C223.457 53.7222 222.413 53.4565 222.362 52.8275ZM227.789 78.1627C226.113 82.1641 224.027 85.3443 221.527 87.7033L179.358 88.6068C180.111 87.2843 180.681 85.9714 181.067 84.6693C181.481 83.2492 181.857 81.6591 182.196 79.899C182.342 82.7425 182.161 85.2247 181.652 87.3445L219.559 86.5118C222.035 85.3071 224.778 82.5237 227.789 78.1627ZM225.022 97.2084C225.897 100.51 227.122 103.232 228.699 105.376C211.779 104.871 192.869 104.534 171.968 104.366C172.866 102.727 173.655 100.871 174.333 98.7985L225.022 97.2084ZM100.446 13.6555C106.322 12.6429 112.975 12.4728 120.404 13.1461L113.848 29.5564C103.435 29.4829 92.9112 29.9036 82.278 30.8187C87.1577 24.748 93.2138 19.0263 100.446 13.6555ZM150.774 11.8085C150.943 11.8085 151.124 11.8085 151.318 11.8085C161.005 12.0034 170.448 12.6305 179.648 13.6909C179.503 16.4131 179.297 18.9909 179.032 21.4243C178.595 25.183 177.988 28.6156 177.211 31.7223C177.089 32.1803 176.968 32.6373 176.846 33.0953L172.512 33.0245C172.027 32.5665 171.542 32.1324 171.057 31.7223C170.861 31.5779 170.666 31.4326 170.473 31.2882C170.374 31.1934 170.278 31.1093 170.182 31.0357C165.106 27.2532 159.851 26.7598 154.415 29.5564L148.332 13.9434C148.261 13.775 148.212 13.6306 148.185 13.5093C147.968 12.402 148.831 11.835 150.774 11.8085ZM32.9369 52.5396C33.6626 52.6132 34.4025 52.6973 35.1549 52.7921C36.6607 55.323 37.5229 59.0462 37.7434 63.9626L8.39132 62.9129C8.73049 59.1542 9.85959 55.3593 11.7786 51.5298C12.0464 51.5298 12.3124 51.5298 12.5775 51.5298C13.744 51.5298 14.8981 51.5413 16.0406 51.5652C14.9722 54.5036 14.1823 57.6713 13.6709 61.0703C14.617 57.5535 15.6854 54.3973 16.8752 51.6006C22.2154 51.6981 27.2896 51.9878 32.0979 52.4688C31.2473 55.2388 30.5671 58.2737 30.0584 61.5753C30.9099 58.2028 31.8694 55.191 32.9369 52.5396ZM60.9724 105.123C62.43 103.656 63.8394 101.837 65.1988 99.6666L93.0915 101.509L100.268 99.7773L124.081 100.065C124.98 101.97 126.413 103.38 128.379 104.295C103.373 104.342 80.9035 104.618 60.9724 105.123ZM149.787 71.4037C152.337 67.2606 155.421 65.1895 159.039 65.1895C162.633 65.1895 165.704 67.2606 168.25 71.4037C169.149 72.8503 169.89 74.4174 170.473 76.1031C171.541 79.1389 172.075 82.5361 172.075 86.2948C172.075 90.0534 171.541 93.463 170.473 96.5219C169.89 98.1846 169.149 99.7393 168.25 101.186C167.498 102.415 166.697 103.462 165.849 104.331C163.835 106.377 161.565 107.4 159.039 107.4C156.466 107.4 154.172 106.365 152.157 104.295C151.33 103.427 150.54 102.391 149.787 101.186C148.065 98.4158 146.911 95.271 146.329 91.7516C146.281 91.4389 146.233 91.1492 146.186 90.8835C146.162 90.5973 146.15 90.3325 146.15 90.0906C146.123 90.0437 146.11 89.995 146.11 89.9445C145.991 88.7636 145.931 87.5465 145.931 86.2948C145.931 80.4898 147.217 75.5256 149.787 71.4037ZM122.113 53.6602C123.133 53.6842 124.141 53.9853 125.135 54.5638C127.467 55.9608 129.702 58.9602 131.838 63.564C132.394 65.1789 131.653 65.9008 129.615 65.7299L85.3708 65.6236C84.0114 65.768 83.0769 65.6121 82.5681 65.1541C82.0593 64.6961 81.9986 63.9608 82.3851 62.9483L85.4466 57.0929C87.4612 54.2024 90.2513 52.8523 93.8189 53.0446H94.2206C93.37 56.6349 92.871 60.359 92.7255 64.2151C93.2611 60.2642 94.0394 56.5543 95.0596 53.0844L115.522 53.5141C114.891 56.7208 114.515 59.9497 114.393 63.2008C114.975 59.8992 115.754 56.6836 116.727 53.5539L122.113 53.6602ZM98.737 85.6083C99.1502 86.6208 99.7322 87.3197 100.482 87.7033C101.479 90.3077 103.045 91.5124 105.181 91.3175L105.726 91.2112C106.576 90.9924 107.39 90.4981 108.167 89.7274L108.279 89.6566C108.394 89.4945 108.519 89.3315 108.658 89.1693C109.347 88.4678 109.851 87.4021 110.171 85.9714C110.557 83.5115 110.278 81.5839 109.332 80.1869L119.636 80.1514C119.371 82.7762 118.705 85.0059 117.637 86.8396C121.496 88.9594 126.46 90.7905 132.53 92.3318L105.802 91.57C104.733 92.1254 103.593 92.4027 102.379 92.4027C101.796 92.4027 101.25 92.3425 100.741 92.2211C98.5308 90.2696 97.8622 88.0647 98.737 85.6083ZM105.034 79.899C105.956 79.5384 106.794 79.5624 107.547 79.9698C108.859 80.7671 109.466 82.5857 109.367 85.4267L109.225 86.2593C108.835 88.1373 108.058 89.366 106.895 89.9445C106.844 89.9445 106.808 89.9445 106.783 89.9445C106.444 89.9684 106.092 89.9684 105.726 89.9445C103.104 89.4865 101.977 87.4039 102.343 83.6948C102.754 81.9346 103.603 80.7051 104.891 80.0053C104.915 79.9583 104.963 79.9229 105.034 79.899ZM154.812 93.9219C154.087 93.6092 153.432 93.0299 152.849 92.1857L149.533 94.1035C149.024 94.6793 148.892 95.4739 149.136 96.4864C149.16 96.56 149.196 96.6211 149.243 96.668C149.341 96.9099 149.463 97.1393 149.609 97.3546C150.918 99.5718 152.422 100.994 154.121 101.62C154.971 101.569 155.421 100.931 155.469 99.702L154.812 93.9219ZM164.135 93.1999C164.356 91.8269 164.064 91.1155 163.261 91.0651L160.351 90.9942C160.181 91.2839 160.01 91.5611 159.838 91.8269C159.329 92.6215 158.771 93.2106 158.164 93.5942L158.454 99.485C158.769 100.498 159.438 100.654 160.458 99.9545C161.139 99.2574 161.783 98.391 162.39 97.3546C163.093 96.1259 163.662 94.814 164.1 93.417C164.1 93.3435 164.112 93.2708 164.135 93.1999ZM157.472 90.9233C157.35 90.7045 157.205 90.5956 157.035 90.5956C156.865 90.5956 156.707 90.7045 156.562 90.9233C156.464 91.1625 156.415 91.4265 156.415 91.7161C156.415 92.0058 156.464 92.2583 156.562 92.4736C156.707 92.6924 156.865 92.8013 157.035 92.8013C157.205 92.8013 157.35 92.6924 157.472 92.4736C157.618 92.2583 157.691 92.0058 157.691 91.7161C157.691 91.4265 157.619 91.1625 157.472 90.9233ZM160.315 86.5827C160.17 86.3904 160.01 86.2948 159.838 86.2948C159.668 86.2948 159.536 86.3904 159.44 86.5827C159.295 86.7776 159.222 87.0194 159.222 87.3091C159.222 87.5987 159.295 87.8388 159.44 88.031C159.536 88.2463 159.668 88.3544 159.838 88.3544C160.01 88.3544 160.17 88.2463 160.315 88.031C160.411 87.8388 160.458 87.5987 160.458 87.3091C160.458 87.0194 160.411 86.7776 160.315 86.5827ZM153.429 89.7629C153.601 89.7629 153.759 89.6548 153.902 89.4395C154 89.2473 154.049 89.0072 154.049 88.7176C154.049 88.4518 154 88.2109 153.902 87.9956C153.759 87.8007 153.601 87.7033 153.429 87.7033C153.259 87.7033 153.127 87.8007 153.032 87.9956C152.886 88.2109 152.813 88.4518 152.813 88.7176C152.813 89.0072 152.886 89.2473 153.032 89.4395C153.127 89.6548 153.259 89.7629 153.429 89.7629ZM153.831 81.1259C153.685 81.3677 153.612 81.6574 153.612 81.994C153.612 82.3306 153.685 82.6203 153.831 82.8621C153.976 83.1279 154.159 83.2608 154.38 83.2608C154.573 83.2608 154.754 83.1279 154.924 82.8621C155.07 82.6203 155.143 82.3306 155.143 81.994C155.143 81.6574 155.07 81.3677 154.924 81.1259C154.754 80.8628 154.573 80.7317 154.38 80.7317C154.16 80.7317 153.977 80.8628 153.831 81.1259ZM157.691 80.7317C157.569 80.9469 157.508 81.1879 157.508 81.4536C157.508 81.7433 157.569 81.9958 157.691 82.211C157.813 82.4033 157.959 82.4989 158.128 82.4989C158.298 82.4989 158.443 82.4033 158.566 82.211C158.688 81.9958 158.749 81.7433 158.749 81.4536C158.749 81.1879 158.688 80.9469 158.566 80.7317C158.443 80.5368 158.298 80.4393 158.128 80.4393C157.959 80.4393 157.813 80.5368 157.691 80.7317ZM161.404 77.0421H161.368L160.239 81.1657C160.846 82.32 161.199 83.6683 161.297 85.2096L163.993 86.2948C164.647 86.5605 164.986 86.1026 165.01 84.9217C165.01 84.8243 165.01 84.7286 165.01 84.6338C164.986 84.5603 164.974 84.4992 164.974 84.4522C164.805 81.6591 164.234 79.177 163.261 77.0067C163.237 77.0067 163.225 76.9952 163.225 76.9713C162.425 76.0083 161.818 76.0323 161.404 77.0421ZM146.985 86.3302C146.985 86.9087 147.009 87.488 147.056 88.0665C147.375 89.2712 147.8 89.7407 148.332 89.475L151.135 87.1983C151.111 86.8617 151.099 86.5136 151.099 86.153C151.099 84.5851 151.342 83.1987 151.827 81.994L150.006 78.5613C149.982 78.5374 149.97 78.5144 149.97 78.4905C149.462 77.5984 148.746 77.9962 147.824 79.6819C147.265 81.7043 146.985 83.9207 146.985 86.3302ZM158.566 71.3328C157.738 70.9493 156.889 70.757 156.017 70.757C155.095 70.757 154.221 70.9723 153.393 71.4037C152.057 72.8503 151.633 73.9709 152.121 74.7655C152.121 74.816 152.145 74.8647 152.193 74.9117L152.264 74.9825L155.031 78.3089C155.397 78.1875 155.787 78.1273 156.2 78.1273C156.441 78.1273 156.684 78.1388 156.928 78.1627L159.074 74.1144C159.489 72.9097 159.319 71.9822 158.566 71.3328ZM158.057 66.5626C157.328 66.5626 156.623 66.6582 155.942 66.8505C156.43 66.7557 156.928 66.7087 157.437 66.7087C158.773 66.7087 160.022 67.0454 161.185 67.7186C162.765 68.6576 164.198 70.2238 165.483 72.418C167.182 75.2855 168.226 78.5986 168.616 82.3572L168.799 86.0423C168.799 86.0662 168.799 86.0893 168.799 86.1132C168.799 86.6208 168.799 87.139 168.799 87.6678L168.469 90.8835C168.007 94.185 167.012 97.1127 165.483 99.6666C164.222 101.837 162.814 103.392 161.261 104.331C160.071 105.028 158.796 105.376 157.437 105.376C156.053 105.376 154.754 105.015 153.541 104.295C151.988 103.354 150.579 101.81 149.314 99.6666C148.127 97.6912 147.254 95.4872 146.695 93.0538C147.254 95.7051 148.188 98.0783 149.497 100.172C150.589 101.955 151.791 103.33 153.103 104.295C153.347 104.463 153.601 104.632 153.866 104.8C155.154 105.595 156.551 105.992 158.057 105.992C159.586 105.992 160.994 105.595 162.279 104.8C162.522 104.656 162.765 104.499 163.006 104.331C164.294 103.365 165.497 101.979 166.612 100.172C168.969 96.3651 170.147 91.7401 170.147 86.2948C170.147 80.8734 168.969 76.236 166.612 72.3826C165.619 70.7677 164.539 69.4788 163.372 68.5159C161.769 67.2137 159.997 66.5626 158.057 66.5626ZM244.904 85.719C244.806 85.5507 244.709 85.4665 244.614 85.4665C244.515 85.4665 244.419 85.5507 244.324 85.719C244.225 85.9342 244.176 86.1752 244.176 86.4409C244.176 86.7067 244.225 86.9476 244.324 87.1629C244.419 87.3782 244.515 87.4862 244.614 87.4862C244.709 87.4862 244.806 87.3782 244.904 87.1629C245.002 86.9476 245.051 86.7067 245.051 86.4409C245.051 86.1752 245.002 85.9342 244.904 85.719ZM244.614 81.1657C244.709 81.0213 244.756 80.8397 244.756 80.6209C244.756 80.4057 244.709 80.225 244.614 80.0806C244.515 79.9362 244.419 79.8635 244.324 79.8635C244.225 79.8635 244.127 79.9362 244.029 80.0806C243.934 80.225 243.886 80.4057 243.886 80.6209C243.886 80.8397 243.934 81.0213 244.029 81.1657C244.127 81.358 244.225 81.4536 244.324 81.4536C244.419 81.4536 244.515 81.358 244.614 81.1657ZM247.416 72.9938C246.494 71.8156 245.852 71.8156 245.488 72.9938L244.904 75.8507C245.704 77.0315 246.153 78.3328 246.252 79.7528L247.782 78.7075C248.267 78.3204 248.486 77.5364 248.438 76.3556C248.293 75.0561 247.952 73.9355 247.416 72.9938ZM249.237 85.6791V85.4665C249.237 85.2955 249.237 85.1503 249.237 85.0325C249.092 84.3326 248.727 84.2724 248.144 84.8509L247.055 85.7898L246.908 87.6678L247.488 92.4381C248.607 91.0411 249.19 88.7884 249.237 85.6791ZM249.857 68.8746C249.759 68.8507 249.675 68.8277 249.603 68.8038C249.068 68.7063 248.485 68.7905 247.854 69.0562H247.925L247.706 69.1271C249.625 69.0093 251.192 70.4187 252.406 73.357C253.596 76.2475 254.191 79.7413 254.191 83.8366C254.191 87.9088 253.572 91.3778 252.334 94.2452C251.12 97.1358 249.65 98.5815 247.925 98.5815C247.586 98.5815 247.077 98.4247 246.399 98.112C247.175 98.8357 247.757 99.2343 248.144 99.3079C248.242 99.3079 248.364 99.3079 248.51 99.3079C250.378 99.3079 251.968 97.8019 253.28 94.79C254.617 91.8021 255.284 88.1878 255.284 83.9473C255.284 79.7067 254.617 76.081 253.28 73.0691C252.26 70.804 251.12 69.4061 249.857 68.8746ZM121.569 35.6997C121.348 35.6997 121.165 35.7112 121.02 35.7351C104.514 39.0836 92.7407 43.0717 85.701 47.6985C98.1282 42.5429 110.546 38.9286 122.952 36.8557C123.122 36.8088 123.303 36.7716 123.497 36.745C132.845 35.8795 142.556 35.9407 152.63 36.9266C142.797 35.6979 132.516 35.2896 121.788 35.6997C121.713 35.6997 121.64 35.6997 121.569 35.6997ZM47.6464 62.0093C47.9142 63.0458 49.1522 63.5994 51.3595 63.6703L72.2634 64.1044C75.7355 64.1283 77.1431 63.2495 76.4853 61.469L78.6006 60.6363L41.5636 59.9143L47.4634 60.9596C44.5028 62.9111 44.4421 64.0574 47.2805 64.3967C46.1175 63.2628 46.2397 62.4673 47.6464 62.0093ZM41.1262 86.875C38.9662 87.5722 36.733 88.0045 34.4275 88.1728L79.3995 89.3332C79.5932 89.3067 79.7762 89.2934 79.9484 89.2934C82.3253 89.0781 83.441 87.2843 83.2956 83.9119L88.3207 82.8621L28.2733 81.7415L37.0874 83.0792C37.2337 85.3673 38.5797 86.6332 41.1262 86.875ZM17.9686 78.5259H18.0043C17.3732 77.7552 16.5851 77.3699 15.639 77.3699C14.4724 77.3699 13.4049 77.9475 12.4346 79.1017C11.4885 80.3065 10.9057 81.7398 10.6852 83.4025C10.5156 84.7286 10.6254 85.8979 11.0155 86.9104C11.0628 83.9694 11.7295 81.994 13.0148 80.9841C11.8518 84.8615 12.9327 87.4154 16.2593 88.6467C16.6226 88.3809 16.9617 88.0425 17.2768 87.6324C17.3991 87.488 17.5071 87.3551 17.6026 87.2338C17.6294 87.2099 17.6428 87.1868 17.6428 87.1629H17.6026C18.721 85.9821 19.3279 84.5603 19.4234 82.8976C19.5457 81.164 19.0611 79.7067 17.9686 78.5259ZM14.617 81.272C15.1052 79.8015 15.9308 78.9219 17.0938 78.6322C18.04 79.5003 18.513 80.8619 18.513 82.716C18.513 84.718 17.882 86.1282 16.6208 86.9459C14.6304 86.3196 13.927 84.5497 14.5099 81.6352C14.534 81.4908 14.5697 81.3695 14.617 81.272ZM42.0768 46.2501L43.13 48.0971C45.8256 44.6981 60.004 40.7579 85.6653 36.2755C60.6583 40.1086 44.8304 43.4934 38.1807 46.4317L42.0768 46.2501ZM216.975 11.556C217.071 11.6295 217.179 11.7137 217.301 11.8085C220.651 14.4837 224.038 17.3645 227.463 20.4499C227.608 20.5916 227.766 20.7484 227.936 20.9194C232.741 26.1698 236.346 31.2041 238.749 36.023L214.534 16.1092C219.318 24.2298 223.082 32.446 225.825 40.7579C225.825 40.8084 225.837 40.8686 225.861 40.9395L226.258 42.1664L225.495 41.626H195.054C190.805 41.6021 187.844 40.6631 186.168 38.809C186.555 40.1316 187.355 41.0476 188.569 41.5552C185.996 40.8084 183.582 39.4096 181.326 37.3607C183.364 40.5409 185.501 42.2399 187.735 42.4587C189.966 42.674 191.167 42.7333 191.336 42.6359L225.749 42.7112L250.911 43.2161L250.112 42.348C250.014 42.2266 249.917 42.1194 249.822 42.0247C235.085 25.4239 224.002 14.7256 216.574 9.93047C214.122 9.25723 211.828 8.79925 209.692 8.55741C209.594 8.53349 209.497 8.52198 209.402 8.52198L209.438 8.55741L209.072 8.52198C202.3 7.72737 195.431 7.43859 188.462 7.65385C186.617 7.75129 185.646 8.93212 185.548 11.1972C186.057 10.0164 187.222 9.38833 189.042 9.31481C188.242 9.4592 187.465 9.93047 186.713 10.7277C186.01 11.4249 185.646 12.1229 185.619 12.8228C185.619 13.0619 185.389 16.3378 184.928 22.6512C184.297 29.3509 183.52 33.99 182.598 36.5678L184.129 38.0826C184.783 34.7846 185.548 32.9775 186.423 32.6613C186.494 32.6373 186.567 32.6143 186.641 32.5904L195.451 32.7366C197.078 32.663 198.269 32.9385 199.021 33.5648C199.144 33.6623 199.253 33.7712 199.352 33.8926C199.932 34.5419 200.367 35.5784 200.659 37.0019V37.0373C200.927 38.2182 200.854 39.073 200.441 39.6019C200.2 39.9146 199.836 40.1201 199.352 40.2175C199.108 40.2645 198.828 40.2884 198.513 40.2884L197.638 40.3238C199.167 39.9163 199.981 39.1457 200.079 38.0118C199.421 35.7467 198.876 34.7474 198.441 35.0132C197.689 37.0595 196.364 38.2642 194.469 38.6274L186.57 38.6629C189.045 40.2042 192.298 40.9749 196.326 40.9749L223.928 40.9041C223.904 40.8066 223.881 40.7225 223.857 40.6516C219.778 28.3623 214.583 18.1334 208.273 9.9659L208.197 9.60714L214.315 10.4753C215.238 10.617 216.125 10.9775 216.975 11.556ZM191.595 13.7618L204.667 14.1604C208.112 19.5818 211.256 25.8208 214.097 32.8783L204.595 32.7011L203.975 34.1096C203.609 30.3271 202.068 28.0744 199.352 27.3506C198.986 27.2293 198.609 27.1575 198.222 27.1336C198.1 27.1097 197.979 27.0982 197.857 27.0982L187.079 26.8811L187.878 15.4626C187.902 15.2438 187.951 15.0391 188.025 14.8469C188.293 14.0027 189.227 13.6174 190.828 13.6909C191.072 13.6909 191.327 13.7148 191.595 13.7618Z" fill="black"/>
<path d="M146.184 90.8827C146.231 90.6674 146.244 90.4867 146.22 90.3423C146.196 90.2714 146.173 90.1873 146.148 90.0898C146.148 90.3317 146.161 90.5965 146.184 90.8827Z" fill="white"/>
</g>
</svg>
