<svg width="16" height="15" viewBox="0 0 16 15" fill="none" xmlns="http://www.w3.org/2000/svg">
<path d="M3.73636 12.2097C3.29706 12.1117 2.89189 11.9498 2.52936 11.6985C1.55268 11.0211 1.02382 10.0839 1.01102 8.89528C0.989696 7.06341 0.993961 5.23154 1.00676 3.39968C1.02382 1.68284 2.23934 0.298285 3.94108 0.038416C4.11168 0.0128551 4.29081 0.00433481 4.46567 0.00433481C7.15688 0.00433481 9.8481 7.46544e-05 12.5393 0.00433481C14.2069 0.00859496 15.5717 1.10771 15.9172 2.73083C15.9684 2.97366 15.9897 3.22501 15.9897 3.47636C15.994 5.25284 15.9982 7.03359 15.994 8.81007C15.9897 10.5141 14.8637 11.8944 13.2047 12.2139C12.9701 12.2608 12.7312 12.2693 12.4924 12.2693C11.2939 12.2736 10.0997 12.2736 8.90127 12.2693C8.77332 12.2693 8.66669 12.2991 8.56007 12.3716C7.33175 13.1938 6.10343 14.0117 4.87511 14.8339C4.71731 14.9404 4.55097 15.0171 4.35478 14.9958C3.98799 14.9575 3.74489 14.6848 3.74062 14.3014C3.73636 13.6752 3.74062 13.0447 3.74062 12.4184C3.73636 12.3545 3.73636 12.2906 3.73636 12.2097ZM5.09262 13.0447C5.16939 12.9978 5.21631 12.9637 5.26322 12.9339C6.1802 12.3247 7.09717 11.7155 8.00988 11.0978C8.20607 10.9657 8.40226 10.9103 8.63684 10.9103C9.94193 10.9146 11.2428 10.9146 12.5478 10.9103C13.742 10.9061 14.6334 10.0114 14.6334 8.81433C14.6334 7.02507 14.6334 5.2358 14.6334 3.44654C14.6334 2.26222 13.7378 1.36332 12.5521 1.36332C9.85663 1.36332 7.15688 1.36332 4.46141 1.36332C3.27147 1.36332 2.37582 2.26222 2.37582 3.45506C2.37582 5.24006 2.37582 7.02081 2.37582 8.80581C2.37582 9.97309 3.2075 10.8464 4.37611 10.9061C4.84952 10.9316 5.09262 11.183 5.09689 11.6559C5.09262 12.1074 5.09262 12.5547 5.09262 13.0447Z" fill="white"/>
<path d="M8.48317 5.45711C7.13543 5.45711 5.79196 5.45711 4.44422 5.45711C3.93668 5.45711 3.60401 4.99701 3.77461 4.54118C3.87697 4.26427 4.09022 4.12368 4.38024 4.09386C4.43142 4.0896 4.48687 4.0896 4.53805 4.0896C7.17808 4.0896 9.81385 4.0896 12.4539 4.0896C12.569 4.0896 12.6885 4.09812 12.7994 4.1322C13.115 4.23018 13.2984 4.54544 13.2514 4.88625C13.2088 5.19724 12.9273 5.44859 12.5946 5.45285C12.2108 5.46137 11.8269 5.45285 11.4473 5.45285C10.4621 5.45711 9.47265 5.45711 8.48317 5.45711Z" fill="white"/>
<path d="M8.48349 8.17944C7.58784 8.17944 6.69646 8.1837 5.80507 8.17944C5.32739 8.17518 5.01178 7.7875 5.11841 7.34019C5.18238 7.05902 5.42975 6.84601 5.71977 6.82897C5.76242 6.82471 5.80507 6.82471 5.84772 6.82471C7.6177 6.82471 9.39194 6.82471 11.1619 6.82471C11.5586 6.82471 11.8272 7.02919 11.8955 7.37427C11.9765 7.78324 11.6822 8.16666 11.2643 8.17944C10.8889 8.19222 10.5094 8.1837 10.1298 8.1837C9.5796 8.17944 9.03368 8.17944 8.48349 8.17944Z" fill="white"/>
</svg>
