<svg width="312" height="174" viewBox="0 0 312 174" fill="none" xmlns="http://www.w3.org/2000/svg">
<path d="M229.966 15.2398L229.288 16.9367C229.57 13.54 226.767 11.1326 220.878 9.71638L147.845 0.28959C147.732 0.28959 147.648 0.28959 147.59 0.28959C142.157 -0.674721 138.195 0.769342 135.705 4.62082C135.308 5.13037 134.968 5.72454 134.686 6.40426L124.748 28.1517C124.011 27.3028 123.218 26.8778 122.369 26.8778H117.953C115.066 26.7625 113.707 27.9806 113.877 30.5313L113.623 36.8142C104.283 37.3814 95.5934 38.4582 87.5515 40.0446L87.042 40.1263C82.9091 41.6002 80.4178 45.792 79.5691 52.7018L78.5503 51.1731C69.6625 49.6992 64.0868 52.4451 61.8214 59.4125C61.7637 59.525 61.7349 59.6654 61.7349 59.8356L62.5855 60.3451C48.6036 63.1208 40.6779 73.4273 38.8066 91.2646C38.6364 93.5307 38.5519 95.7112 38.5519 97.8071C38.7797 108.565 42.0341 116.466 48.3172 121.506L42.2907 123.203L34.4766 133.144L22.7601 138.24L0 163.213L26.2395 151.407L35.4954 142.489H46.0248C45.2338 142.829 44.413 143.366 43.5643 144.1L40.5078 154.296L61.9896 152.258L50.9507 150.133L76.4261 146.056L64.4549 143.254L59.2743 136.288L54.2619 141.129L52.8202 138.663C54.6877 134.814 57.1502 131.417 60.2066 128.472C65.5286 127.734 70.539 128.046 75.2391 129.404C78.1254 131.613 80.7013 134.812 82.9668 139.004L94.0921 140.365L107.678 146.225L84.7497 149.368L118.89 149.455L135.278 151.575L132.644 154.974L120.841 159.391L111.672 171.452L133.326 166.357L152.857 169.073L144.024 173.664L184.364 174L232.344 164.573L220.541 158.968L211.113 158.459L202.875 155.656C203.724 153.673 204.461 151.606 205.086 149.455L209.926 142.999L237.016 143.763C241.091 140.648 245.676 138.524 250.77 137.389C251.224 137.277 251.707 137.192 252.216 137.134L264.106 138.24L274.462 141.216L287.116 157.185L283.382 147.412L292.638 149.965L312 166.953L297.563 142.062L280.07 134.841L279.133 136.37L277.35 131.697L270.983 124.395L267.753 123.631C268.491 119.721 268.859 115.332 268.859 110.464C268.859 105.821 268.519 101.602 267.84 97.8071C267.501 95.8814 267.047 94.0402 266.48 92.2837C265.009 87.3006 263.171 84.8086 260.963 84.8086C258.755 84.8086 256.859 87.3006 255.273 92.2837C255.045 93.0788 254.847 93.872 254.677 94.6632H250.943C250.998 93.0769 251.138 91.4636 251.366 89.8225L254.677 89.3129L247.968 87.866C248.307 87.0747 248.676 86.2825 249.073 85.4912C249.073 85.3759 249.102 85.2913 249.16 85.2365L255.359 84.1308L250.179 83.3665C250.8 82.2897 251.45 81.2417 252.13 80.2226C258.47 78.5238 262.829 79.1477 265.206 82.0926L266.734 73.5984C257.678 71.615 251.846 73.5676 249.241 79.4583L245.507 86.9334C243.242 92.9933 239.844 96.4486 235.314 97.2976C237.522 93.3336 240.183 86.792 243.297 77.6748C243.297 77.6171 243.326 77.5614 243.383 77.5066C245.533 71.9563 248.647 69.2364 252.726 69.3489L258.161 69.4354C258.385 69.4354 259.8 69.5479 262.404 69.7719C264.952 69.9998 266.48 70.8775 266.989 72.4062L268.859 59.749L256.801 57.7973L258.416 35.9681C259.095 26.2837 257.085 20.818 252.384 19.571L229.966 15.2398ZM228.86 20.2488L229.033 22.3736L244.316 24.4118C248.225 25.1492 250.263 28.0383 250.433 33.0791L248.987 55.4178L251.789 57.7108L248.477 57.3743L246.526 64.4216C247.093 51.7375 247.064 42.1097 246.44 35.5403C245.873 32.2013 243.891 30.0486 240.495 29.0843C243.837 31.0677 245.11 36.8738 244.316 46.5006L242.619 44.9719L242.874 39.1937C242.932 32.9637 240.724 29.5939 236.251 29.0843L228.692 27.897L224.953 40.8906L235.487 42.6789C237.695 42.7914 238.628 44.4316 238.289 47.6014L238.116 53.0383C237.835 55.7591 236.561 57.1195 234.296 57.1195L223.257 56.1004L220.964 67.0559L221.051 53.8891L230.898 54.9948C234.579 55.4466 236.561 54.3429 236.843 51.6827L237.184 48.7936C237.241 45.8487 236.278 44.2912 234.296 44.121L225.126 42.3376C224.05 42.7895 223.172 43.7528 222.493 45.2267L228.86 20.2488ZM216.461 13.6246C219.294 14.6437 220.596 16.456 220.368 19.0614L175.444 34.5212L145.807 30.2765L205.168 11.8411L210.771 12.5189L161.858 28.0652L216.461 13.6246ZM223.766 46.6688C223.824 45.4219 224.474 44.6864 225.717 44.4623L233.277 45.9045C234.75 46.8659 235.288 49.0743 234.891 52.5287C234.495 50.0386 233.277 48.3965 231.239 47.6014L223.766 46.6688ZM219.268 23.0562L215.188 36.0499C213.717 38.713 210.377 39.6196 205.168 38.7707L184.109 35.7951L219.268 23.0562ZM240.923 97.8888H242.874L241.346 102.734L240.923 97.8888ZM220.2 94.0672C220.143 94.0672 220.087 94.0672 220.032 94.0672C219.862 94.0672 219.693 94.0672 219.523 94.0672C216.748 93.897 215.671 92.4539 216.293 89.7359L220.2 75.6366L218.672 89.1398C218.444 90.556 219.434 91.2088 221.642 91.0964L229.033 91.2646C232.827 89.9061 236.533 84.4981 240.154 75.0405C237.213 87.1036 233.957 93.474 230.388 94.1537L220.368 94.0672C220.314 94.0672 220.258 94.0672 220.2 94.0672ZM222.915 99.504L226.823 100.696H208.565L204.658 98.5714L222.915 99.504ZM231.494 107.575L232.599 104.345C232.314 111.2 232.823 116.92 234.127 121.506L231.835 119.213C223.569 118.985 214.964 120.769 206.018 124.564L205.932 130.087C205.083 125.328 203.356 121.024 200.751 117.175C196.788 110.945 191.609 107.83 185.214 107.83C178.816 107.83 173.126 110.945 168.144 117.175C167.69 117.797 167.265 118.447 166.871 119.127L162.964 118.785C163.812 116.692 164.746 114.57 165.765 112.416H170.268L155.322 108.849C160.359 103.754 167.349 101.092 176.295 100.864C185.976 100.637 194.016 103.328 200.415 108.936L231.494 107.575ZM260.112 93.8124C260.509 93.0211 260.992 92.625 261.559 92.625C262.69 92.625 263.651 94.295 264.442 97.6341C264.442 97.6917 264.471 97.7494 264.529 97.8071C265.266 101.146 265.634 105.138 265.634 109.782C265.634 114.541 265.237 118.619 264.442 122.016C263.651 125.359 262.69 127.03 261.559 127.03C261.162 127.03 260.793 126.859 260.453 126.515C260.396 126.461 260.367 126.405 260.367 126.347C259.745 125.556 259.18 124.112 258.67 122.016C257.876 118.619 257.479 114.541 257.479 109.782C257.479 107.859 257.563 106.075 257.733 104.431C258.697 105.905 259.66 108.596 260.622 112.503C260.792 106.895 260.112 102.052 258.584 97.9754C258.584 97.9177 258.613 97.8619 258.67 97.8071C258.67 97.7494 258.67 97.6917 258.67 97.6341C258.783 97.1822 258.894 96.7572 259.007 96.3602C259.404 96.5303 259.802 97.012 260.199 97.8071C260.538 98.5445 260.849 99.5348 261.131 100.778C261.98 103.78 262.489 107.349 262.659 111.483C262.829 115.73 262.603 119.326 261.982 122.271C261.924 122.61 261.868 122.95 261.813 123.29C261.926 122.838 262.037 122.384 262.15 121.929C262.945 118.644 263.342 114.709 263.342 110.123C263.342 105.592 262.945 101.684 262.15 98.3984C262.095 98.1744 262.039 97.9773 261.982 97.8071C261.414 95.6535 260.792 94.3219 260.112 93.8124ZM246.526 91.7742C246.639 91.3223 246.779 90.8973 246.949 90.5003L250.943 89.9042C250.433 91.4357 250.008 93.0221 249.669 94.6632H245.676C245.903 93.7566 246.158 92.851 246.44 91.9472C246.44 91.8895 246.469 91.8318 246.526 91.7742ZM250.77 97.8071C250.715 97.7494 250.715 97.6917 250.77 97.6341H254.081C254.026 97.6917 253.999 97.7494 253.999 97.8071C253.714 99.506 253.516 101.318 253.403 103.244H250.688C250.63 101.488 250.657 99.6761 250.77 97.8071ZM248.987 97.6341C248.987 97.6917 248.987 97.7494 248.987 97.8071C248.647 99.5636 248.336 101.376 248.054 103.244H244.489C244.601 101.376 244.798 99.5636 245.08 97.8071C245.08 97.7494 245.08 97.6917 245.08 97.6341H248.987ZM251.279 112.926H253.149C253.149 114.173 253.204 115.39 253.317 116.579H251.789C251.565 115.391 251.394 114.173 251.279 112.926ZM253.235 105.96C253.12 107.094 253.062 108.256 253.062 109.445H250.943C250.827 108.311 250.743 107.149 250.688 105.96H253.235ZM244.657 112.926H247.036C246.92 114.115 246.836 115.332 246.781 116.579H244.998C244.828 115.333 244.714 114.115 244.657 112.926ZM244.402 105.96H247.713C247.543 107.094 247.403 108.256 247.29 109.445H244.402C244.344 108.257 244.344 107.094 244.402 105.96ZM245.421 119.468H246.694C246.637 121.506 246.608 123.573 246.608 125.669C246.156 123.573 245.76 121.506 245.421 119.468ZM252.384 119.468H253.571C253.799 121.676 254.14 123.77 254.595 125.751C253.631 123.489 252.894 121.395 252.384 119.468ZM235.06 123.799C235.345 126.123 236.024 128.219 237.097 130.087L234.978 128.558C231.015 129.01 228.382 130.255 227.077 132.294C226.001 129.066 223.764 127.283 220.368 126.943L214.255 126.261C220.426 124.45 227.361 123.63 235.06 123.799ZM137.315 8.52902C138.449 6.37542 140.035 5.07269 142.073 4.62082C142.922 4.45065 143.856 4.4218 144.875 4.53429L195.657 10.6538L133.495 28.4065C131.118 27.5576 130.268 26.0289 130.948 23.8205L137.315 8.52902ZM94.6015 43.525C94.3199 43.4125 94.0364 43.3567 93.7509 43.3567C90.5243 42.677 87.7514 43.1865 85.4321 44.8854C86.5634 43.1288 89.9591 41.7973 95.6203 40.8906L122.201 38.1746C138.563 39.6456 150.848 41.1185 159.056 42.5924C161.831 43.1019 167.209 43.922 175.189 45.0536C183.231 46.3583 190.393 47.8591 196.676 49.5579C203.244 51.7663 206.217 57.9675 205.596 68.1615L185.978 68.3298C191.694 69.8036 195.146 74.9011 196.335 83.6213C194.297 77.1634 190.957 73.7936 186.315 73.5119L178.419 73.5984C178.249 73.5984 178.108 73.5984 177.996 73.5984C170.749 73.483 166.388 78.0979 164.915 87.4429L150.223 85.4912L161.435 84.8952C163.303 76.9086 166.7 71.4429 171.624 68.498L157.528 67.9885L175.444 63.7438L152.689 64.0851C151.67 57.3455 147.821 53.1825 141.141 51.5961L94.6015 43.525ZM115.579 30.4447C115.86 29.3679 116.71 28.7449 118.126 28.5748L121.86 28.4065C118.861 28.7459 116.768 30.3601 115.579 33.2473V30.4447ZM84.668 54.74C84.668 52.3047 85.2899 50.2646 86.5326 48.6205C87.7793 46.9217 89.3075 46.0727 91.1173 46.0727C92.8734 46.0727 94.3737 46.9217 95.6203 48.6205C96.9208 50.2646 97.5715 52.3047 97.5715 54.74C97.5715 57.1753 96.9208 59.2135 95.6203 60.8547C94.3737 62.5535 92.8734 63.4025 91.1173 63.4025C89.3075 63.4025 87.7793 62.5535 86.5326 60.8547C85.2899 59.2145 84.668 57.1763 84.668 54.74ZM60.0384 67.4789C59.1321 68.2163 58.2824 69.0095 57.4914 69.8584L52.9067 68.6711C55.9055 65.8378 59.529 63.8562 63.7773 62.7246C69.551 63.7438 73.0602 66.1781 74.3068 70.0267C74.3068 70.0844 74.3337 70.1421 74.3885 70.1997C73.9944 70.3699 73.5984 70.568 73.2014 70.7958C70.936 72.2091 69.2943 73.9926 68.2755 76.1462L62.5855 75.1271L62.3308 75.2953C62.7278 74.3887 63.1526 73.483 63.6043 72.5793L69.5491 72.9158L64.2002 71.5602C64.7673 70.5382 65.3613 69.5171 65.9832 68.498C65.1345 69.4046 64.3137 70.368 63.5226 71.3871L58.2555 70.0267C58.8226 69.1777 59.4166 68.3288 60.0384 67.4789ZM56.8138 72.238L62.672 72.5793C61.708 73.8224 60.8295 75.153 60.0384 76.5692C59.926 76.6817 59.8414 76.7951 59.7837 76.9105L54.6896 76.3144C55.3115 74.8982 56.0189 73.5397 56.8138 72.238ZM59.8702 79.7131L66.1514 77.9296L151.497 95.9371L146.403 97.8888L144.961 103.157L143.942 98.0619L59.8702 79.7131ZM85.6003 69.2624C85.6003 68.1884 85.9108 67.2549 86.5326 66.4598C87.2122 65.7262 88.0051 65.359 88.9115 65.359C89.8726 65.359 90.6944 65.7262 91.3769 66.4598C91.9987 67.2549 92.3092 68.1884 92.3092 69.2624C92.3092 70.3391 91.9987 71.2169 91.3769 71.8967C90.6944 72.6918 89.8726 73.0888 88.9115 73.0888C88.0051 73.0888 87.2122 72.6918 86.5326 71.8967C85.9108 71.2179 85.6003 70.3391 85.6003 69.2624ZM65.3873 59.4943C66.5214 54.6266 70.6544 52.7575 77.7861 53.8891C74.1078 54.3987 71.4185 55.588 69.7173 57.456C71.7578 57.9656 73.2591 59.8913 74.2203 63.2342C72.0125 60.7989 69.0685 59.5519 65.3873 59.4943ZM50.0184 71.8967L55.4537 72.1514C54.4897 73.3984 53.6112 74.73 52.8202 76.1462L47.7261 75.4636C48.4056 74.1627 49.1697 72.9735 50.0184 71.8967ZM53.4161 79.3718L54.9443 79.5448L54.1802 84.9817L55.9632 85.4047C55.9055 85.6864 55.8209 85.97 55.7084 86.2556L51.6332 85.8277C52.0849 83.5626 52.6789 81.41 53.4161 79.3718ZM46.1978 78.6074L51.2054 79.117C50.2443 81.1004 49.4244 83.2252 48.7449 85.4912L43.9872 84.8952C44.6119 82.63 45.3491 80.5341 46.1978 78.6074ZM50.869 90.332L54.5166 90.5868C54.0649 92.3972 53.7256 94.295 53.4978 96.2784L50.6143 95.9371C50.6143 94.0691 50.6989 92.201 50.869 90.332ZM42.8002 90.5003C42.8002 90.2186 42.8559 89.935 42.9684 89.6494L47.5531 90.0772C47.1013 91.8338 46.762 93.6461 46.5342 95.5141L42.5455 95.0046C42.5455 93.5884 42.63 92.0866 42.8002 90.5003ZM43.1414 103.244C42.9136 101.997 42.7713 100.665 42.7137 99.2493L46.1978 99.6771C46.1402 100.978 46.1113 102.28 46.1113 103.58L43.1414 103.244ZM50.696 100.1L53.1614 100.355C53.0461 101.713 52.9884 103.073 52.9884 104.431L51.2054 104.263C50.9815 102.847 50.8114 101.46 50.696 100.1ZM51.9696 108.594L52.9884 108.681C53.0461 110.264 53.1595 111.906 53.3296 113.608C52.8202 111.906 52.3665 110.235 51.9696 108.594ZM46.962 113.099C45.8278 111.512 44.9214 109.671 44.2419 107.575L46.366 107.83C46.4785 109.587 46.6765 111.343 46.962 113.099ZM72.0961 89.6494L74.1338 90.5003C73.4004 92.2568 72.891 94.2383 72.6055 96.4467C72.5507 96.8986 72.5238 97.3524 72.5238 97.8071C72.296 101.996 73.1457 105.79 75.0709 109.19C77.2786 112.87 80.165 114.993 83.7309 115.56C87.4121 116.127 90.6675 114.938 93.4962 111.993C94.6851 110.804 95.6473 109.472 96.3845 107.998C95.4233 110.546 94.0364 112.812 92.2227 114.796C89.1085 118.023 85.6272 119.353 81.7797 118.785C77.8169 118.221 74.6461 115.843 72.2691 111.652C70.0037 107.575 69.1819 102.96 69.8038 97.8071V97.7206C70.1431 94.7209 70.9072 92.0309 72.0961 89.6494ZM63.9455 87.3564L62.7537 87.1016L58.7649 86.5921C58.7649 86.4219 58.7938 86.2815 58.8514 86.169L62.7537 87.1016L63.9455 87.1882C63.9455 87.2458 63.9455 87.3026 63.9455 87.3564ZM58.169 90.8416L63.0949 91.2646C62.698 93.1903 62.3865 95.2286 62.1626 97.3793L58.0008 96.8697C57.9431 94.8315 57.9989 92.8221 58.169 90.8416ZM58.2555 100.951L61.8214 101.287C61.7089 102.646 61.6532 104.063 61.6532 105.537L58.8514 105.196C58.566 103.725 58.368 102.31 58.2555 100.951ZM59.7837 109.527L61.5667 109.782C61.5667 111.765 61.5955 113.805 61.6532 115.901C60.916 113.748 60.2932 111.623 59.7837 109.527ZM158.715 112.416H165.342C163.984 114.454 162.767 116.55 161.69 118.704L155.913 118.194C156.708 116.211 157.642 114.285 158.715 112.416ZM152.179 112.416H157.528C156.058 114.115 154.784 115.956 153.708 117.939L149.123 117.512C149.972 115.701 150.99 114.002 152.179 112.416ZM145.552 58.1386C146.91 59.8375 147.59 61.9603 147.59 64.5081C147.59 67.0559 146.91 69.1787 145.552 70.8775C144.252 72.6918 142.696 73.5984 140.886 73.5984C139.072 73.5984 137.543 72.6918 136.296 70.8775C134.996 69.1787 134.345 67.0559 134.345 64.5081C134.345 61.9603 134.996 59.8375 136.296 58.1386C137.543 56.3821 139.072 55.5043 140.886 55.5043C142.696 55.5043 144.252 56.3831 145.552 58.1386ZM130.779 53.8026C131.57 53.918 131.911 54.1458 131.798 54.4852L128.146 80.7322C127.976 81.2417 127.552 81.4677 126.872 81.41C126.247 81.2975 125.879 80.987 125.767 80.4774L129.419 54.3122C129.532 53.8026 129.984 53.6334 130.779 53.8026ZM121.096 52.1057C121.891 52.2182 122.23 52.4441 122.115 52.7835L118.462 79.0353C118.292 79.5448 117.868 79.7707 117.189 79.7131C116.567 79.6006 116.201 79.29 116.088 78.7805L119.74 52.6152C119.853 52.1057 120.305 51.9365 121.096 52.1057ZM124.325 53.4661C124.438 52.9566 124.889 52.7864 125.68 52.9566C126.475 53.069 126.816 53.295 126.704 53.6344L123.052 79.8813C122.882 80.3909 122.458 80.6187 121.778 80.5639C121.153 80.4486 120.785 80.1361 120.673 79.6265L124.325 53.4661ZM134.686 77.0788C135.366 76.2298 136.157 75.8049 137.06 75.8049C138.025 75.8049 138.846 76.2298 139.526 77.0788C140.148 77.9277 140.458 78.9468 140.458 80.1361C140.458 81.3254 140.148 82.2878 139.526 83.0252C138.846 83.9318 138.025 84.3856 137.06 84.3856C136.157 84.3856 135.366 83.9318 134.686 83.0252C134.062 82.2878 133.749 81.3254 133.749 80.1361C133.749 78.9478 134.062 77.9287 134.686 77.0788ZM111.076 51C111.188 50.4905 111.641 50.3203 112.436 50.4905C113.227 50.6059 113.567 50.8337 113.455 51.1731L109.802 77.4201C109.632 77.9296 109.208 78.1555 108.529 78.0979C107.907 77.9854 107.539 77.6748 107.423 77.1653L111.076 51ZM115.406 51.7644C115.521 51.2548 115.975 51.0847 116.766 51.2548C117.557 51.3702 117.897 51.5981 117.785 51.9374L114.132 78.1844C113.962 78.694 113.538 78.9199 112.859 78.8622C112.237 78.7497 111.869 78.4392 111.753 77.9296L115.406 51.7644ZM108.106 49.6444C108.897 49.7569 109.237 49.9829 109.125 50.3222L105.472 76.5692C105.302 77.0788 104.878 77.3066 104.199 77.2518C103.574 77.1364 103.206 76.824 103.093 76.3144L106.746 50.154C106.858 49.6444 107.311 49.4752 108.106 49.6444ZM103.857 48.7936C104.648 48.9061 104.989 49.132 104.876 49.4714L101.224 75.7183C101.054 76.2279 100.63 76.4557 99.9503 76.4009C99.3285 76.2856 98.9623 75.9731 98.8498 75.4636L102.497 49.3031C102.613 48.7936 103.066 48.6244 103.857 48.7936ZM107.342 97.8071C107.342 97.012 107.284 96.3332 107.169 95.7689L145.893 104.941C137.118 103.242 130.013 105.45 124.58 111.565L106.659 104.345C107.169 101.686 107.396 99.506 107.342 97.8071ZM90.6944 103.835L88.9115 101.119L107.342 109.782L95.1974 101.542L141.732 124.65L140.713 127.453L90.6944 103.835ZM98.0809 121.675C99.8369 120.713 101.592 117.826 103.348 113.012L127.468 123.886C129.448 129.263 133.892 132.462 140.799 133.481L138.334 140.956L107.851 136.966L98.8498 129.746L113.113 126.179L117.871 128.385L123.052 132.803L120.332 126.347L114.305 123.545C112.943 122.753 107.536 122.13 98.0809 121.675ZM142.837 108.085C138.986 109.046 136.184 111.339 134.432 114.964L130.183 113.099C133.41 108.17 137.628 106.498 142.837 108.085ZM149.801 127.453L145.725 127.03C146.119 125.046 146.685 123.176 147.422 121.42L151.67 121.929C150.933 123.686 150.31 125.527 149.801 127.453ZM144.961 130.851L148.868 131.188C148.414 133.229 148.101 135.325 147.931 137.476L144.365 137.053C144.423 134.957 144.622 132.89 144.961 130.851ZM144.452 141.129L147.763 141.552C147.705 143.138 147.705 144.809 147.763 146.566L144.961 146.138C144.676 144.44 144.507 142.77 144.452 141.129ZM145.725 150.301L148.018 150.642C148.299 153.985 148.78 157.495 149.459 161.175C147.819 157.496 146.574 153.872 145.725 150.301ZM198.377 140.365C197.752 146.595 195.742 151.947 192.346 156.421C189.119 160.894 185.44 163.131 181.307 163.131C177.174 163.131 173.861 160.894 171.369 156.421C169.05 151.947 168.2 146.595 168.822 140.365C169.501 134.077 171.453 128.725 174.68 124.309C178.08 119.893 181.845 117.685 185.978 117.685C190.111 117.685 193.338 119.893 195.657 124.309C198.149 128.726 199.057 134.077 198.377 140.365ZM159.907 128.385C160.301 126.686 160.811 124.932 161.435 123.121L164.492 123.545C163.755 125.186 163.132 126.884 162.622 128.64L159.907 128.385ZM159.652 122.948C158.915 124.647 158.292 126.403 157.783 128.217L152.944 127.707C153.283 125.893 153.763 124.081 154.385 122.271L159.652 122.948ZM152.261 131.529L156.764 131.952C156.255 134.048 155.859 136.2 155.577 138.408L151.925 137.985C151.867 135.778 151.979 133.625 152.261 131.529ZM160.753 139.004L158.379 138.749C158.434 136.599 158.688 134.418 159.143 132.207L161.604 132.462C161.152 134.558 160.868 136.739 160.753 139.004ZM158.461 142.912L160.585 143.167C160.585 144.924 160.698 146.622 160.926 148.263L159.056 148.008C158.717 146.368 158.518 144.669 158.461 142.912ZM152.093 142.148L155.236 142.489C155.123 144.131 155.095 145.8 155.149 147.498L152.689 147.157C152.403 145.459 152.205 143.789 152.093 142.148ZM153.621 151.575L155.404 151.83C155.69 155.284 156.257 158.795 157.105 162.362C155.574 158.684 154.412 155.088 153.621 151.575ZM160.33 152.681L161.858 152.935C162.707 156.447 164.066 159.704 165.934 162.703C166.221 163.132 166.528 163.55 166.856 163.958C163.886 160.473 161.711 156.714 160.33 152.681ZM193.874 140.446C194.326 135.409 193.703 131.106 192.005 127.539C190.419 124.027 188.24 122.271 185.469 122.271C182.636 122.271 180.061 124.027 177.741 127.539C175.531 131.106 174.199 135.409 173.748 140.446C173.351 145.429 173.945 149.707 175.531 153.277C175.87 154.01 176.239 154.69 176.636 155.315C175.502 153.219 174.964 149.736 175.021 144.864C177.344 145.092 178.845 143.337 179.524 139.6C179.524 136.937 178.647 135.181 176.891 134.332C177.57 131.671 178.873 130.172 180.798 129.832C183.797 136.059 184.362 141.807 182.494 147.075C184.647 143.96 185.95 138.665 186.401 131.188C187.759 137.36 187.731 142.797 186.315 147.498C188.58 143.989 189.996 139.261 190.563 133.313C192.998 140.165 192.743 146.819 189.799 153.277C192.118 149.707 193.477 145.43 193.874 140.446ZM135.278 82.1743C135.732 82.7416 136.299 83.0252 136.979 83.0252C137.601 83.0252 138.137 82.7416 138.589 82.1743C138.816 81.8926 139.014 81.5523 139.185 81.1552C138.053 81.8349 137.063 81.9772 136.215 81.583C135.42 81.0735 134.996 80.139 134.941 78.7805C134.771 79.1747 134.686 79.6265 134.686 80.1361C134.686 80.986 134.883 81.6648 135.278 82.1743ZM138.166 63.912C137.996 61.7613 138.903 59.6385 140.886 57.5426C139.694 57.655 138.646 58.3338 137.743 59.5808C136.779 60.9393 136.296 62.5535 136.296 64.4216C136.296 66.405 136.779 68.0769 137.743 69.4354C138.704 70.7939 139.836 71.4736 141.141 71.4736C142.499 71.4736 143.659 70.7939 144.62 69.4354C144.676 69.272 144.755 69.1595 144.86 69.0989C141.358 70.9602 139.155 70.1651 138.252 66.7146C140.12 67.1693 142.157 66.8588 144.365 65.782C141.479 65.782 139.412 65.159 138.166 63.912ZM86.7873 67.9885C86.6172 68.3855 86.5326 68.8105 86.5326 69.2624C86.5326 69.9998 86.7316 70.6228 87.1286 71.1323C87.5803 71.6419 88.1455 71.8967 88.825 71.8967C89.4497 71.8967 89.988 71.6419 90.4397 71.1323C90.6675 70.8506 90.8655 70.5391 91.0356 70.1997C89.9015 70.8218 88.9096 70.9352 88.0609 70.5411C87.2698 70.0863 86.845 69.2354 86.7873 67.9885ZM91.1173 48.0292C89.8746 48.1417 88.8279 48.7916 87.9792 49.9809C87.0151 51.2856 86.5326 52.8431 86.5326 54.6535C86.5326 56.5215 87.0151 58.1079 87.9792 59.4125C88.8827 60.7133 90.0149 61.3642 91.3769 61.3642C92.6773 61.3642 93.7817 60.7133 94.688 59.4125C94.738 59.3068 94.813 59.226 94.9139 59.1722C91.4768 60.9066 89.3354 60.1375 88.4886 56.8648C90.3561 57.2589 92.338 56.9465 94.4333 55.9274C91.6008 55.9274 89.591 55.3332 88.4021 54.1439C88.232 52.1057 89.1374 50.0675 91.1173 48.0292ZM154.472 46.5006L100.969 41.9146L142.414 48.3657C147.79 49.3877 151.3 51.0029 152.944 53.2113C163.189 52.1922 175.163 51.7673 188.862 51.9374C191.921 52.1615 194.158 52.6133 195.571 53.2931C191.268 50.5751 181.701 48.084 166.871 45.818C149.942 42.9885 134.741 41.2896 121.269 40.7224C132.591 42.3088 143.659 44.2355 154.472 46.5006Z" fill="black" fill-opacity="0.06"/>
</svg>
