<svg width="321" height="203" viewBox="0 0 321 203" fill="none" xmlns="http://www.w3.org/2000/svg">
<path d="M225.244 10.1865C225.145 10.1865 225.05 10.1934 224.958 10.2062L217.044 11.6706L205.777 0L152.337 21.4182L168.142 39.4887L145.293 80.8263L150.909 82.8922C121.058 79.3915 99.1495 83.9769 85.1833 96.6483L93.0292 100.972L88.8109 113.018C80.5249 113.094 71.5508 114.028 61.8866 115.823C57.5649 116.632 53.6055 117.527 50.0094 118.51C46.4034 119.506 43.5101 120.499 41.3316 121.488C39.2022 122.458 37.4558 124.013 36.0943 126.153C34.7585 128.256 33.9414 130.669 33.6431 133.391L33.3478 139.342C31.057 139.667 29.3234 140.538 28.145 141.955C27.1045 143.195 26.2864 145.16 25.6889 147.852L25.0539 159.823H15.495V180.517L37.8073 184.466C38.6371 186.544 39.6875 188.366 40.9575 189.934C13.6522 191.406 0 193.152 0 195.17C0 197.337 15.6693 199.182 47.0068 200.707C78.3483 202.236 116.178 203 160.498 203C204.827 203 242.659 202.236 273.993 200.707C305.331 199.182 321 197.337 321 195.17C321 193.514 311.805 192.042 293.416 190.757L292.973 175.428L300.942 182.346V163.428L298.968 160.124L304.461 124.708L301.577 121.193L301.208 115.616L240.921 45.3856L240.271 49.5124L233.562 17.1435C232.079 12.4003 229.307 10.081 225.244 10.1865ZM221.513 19.6087L220.007 15.6692C224.355 14.2887 227.418 14.7916 229.196 17.178L248.26 109.68C248.017 111.918 246.943 112.766 245.036 112.224L226.573 22.6657C225.47 18.9974 223.784 17.9787 221.513 19.6087ZM228.734 53.7034L222.054 47.4022L211.309 68.0266L221.641 79.9881L230.653 63.0172L232.125 70.2404L225.244 84.1593L238.012 98.9558L239.489 106.095L205.329 68.4506L224.279 32.0435L228.734 53.7034ZM293.337 119.358L295.769 118.836L300.199 124.969L295.06 160.997L297.187 163.743L297.812 174.625L291.403 169.329L291.039 162.949L248.624 116.173C250.399 116.489 251.443 115.698 251.755 113.802L260.59 88.1235L251.203 77.4587L247.108 88.8877L245.415 80.846L248.354 74.2144L242.644 67.7061L240.877 58.5402L293.337 119.358ZM250.534 170.488C252.749 170.488 254.639 171.619 256.204 173.88C257.782 176.135 258.572 178.862 258.572 182.06C258.572 185.258 257.782 187.985 256.204 190.24C254.639 192.501 252.749 193.632 250.534 193.632C248.326 193.632 246.431 192.501 244.849 190.24C243.291 187.985 242.511 185.258 242.511 182.06C242.511 178.862 243.291 176.135 244.849 173.88C246.431 171.619 248.326 170.488 250.534 170.488ZM261.643 171.662C261.732 170.633 261.414 169.882 260.689 169.408C262.572 167.285 265.092 165.863 268.249 165.143C265.486 166.748 263.284 168.92 261.643 171.662ZM250.401 164.039C253.345 164.039 255.855 165.413 257.932 168.161C260.012 170.902 261.053 174.214 261.053 178.096C261.053 178.596 261.036 179.092 261.004 179.585C260.784 176.245 259.756 173.35 257.922 170.897C255.852 168.139 253.342 166.761 250.391 166.761C247.465 166.761 244.957 168.139 242.87 170.897C241.076 173.303 240.058 176.148 239.818 179.432C239.782 178.988 239.764 178.543 239.764 178.096C239.764 174.214 240.805 170.902 242.885 168.161C244.975 165.413 247.48 164.039 250.401 164.039ZM270.833 173.88C272.405 171.619 274.298 170.488 276.513 170.488C278.728 170.488 280.616 171.619 282.179 173.88C283.754 176.135 284.541 178.862 284.541 182.06C284.541 185.258 283.754 187.985 282.179 190.24C280.616 192.501 278.728 193.632 276.513 193.632C274.298 193.632 272.405 192.501 270.833 190.24C269.271 187.985 268.49 185.258 268.49 182.06C268.49 178.862 269.271 176.135 270.833 173.88ZM269.101 169.27C271.194 166.519 273.701 165.143 276.622 165.143C279.568 165.143 282.073 166.519 284.138 169.27C286.225 172.012 287.268 175.323 287.268 179.205C287.268 179.701 287.251 180.198 287.214 180.694C287.001 177.354 285.974 174.457 284.133 172.002C282.066 169.25 279.557 167.875 276.607 167.875C273.68 167.875 271.175 169.25 269.091 172.002C267.289 174.408 266.272 177.251 266.039 180.532C266.009 180.098 265.995 179.656 265.995 179.205C265.995 175.323 267.03 172.012 269.101 169.27ZM232.745 162.89L219.711 162.634C210.52 155.359 201.772 155.046 193.466 161.692L184.109 161.519C184.083 158.923 182.261 156.962 178.646 155.637L185.896 124.747L184.552 122.474L186.039 116.617L232.745 162.89ZM242.033 164.039C238.056 166.337 235.243 169.803 233.592 174.437C232.233 178.251 231.674 182.811 231.913 188.12C231.95 188.915 232.007 189.719 232.086 190.531C231.823 189.719 231.596 188.911 231.406 188.11C230.08 182.716 230.104 177.913 231.475 173.703C233.181 168.464 236.701 165.242 242.033 164.039ZM173.699 43.1718L180.984 51.8199L217.723 39.4196L202.439 67.5681L177.907 73.3516L189.839 51.598L181.205 54.0485L169.382 75.3682L152.657 79.3126L173.699 43.1718ZM37.1526 131.547C37.9569 127.378 40.1975 125.043 43.8763 124.54C50.4691 123.712 56.6563 123.443 62.4379 123.732C64.0228 123.932 64.8694 125.147 64.9777 127.375L64.0474 126.449L61.4091 127.592L60.0703 143.198L58.4607 149.661C59.3566 148.458 60.2544 146.573 61.1532 144.006H75.4029C78.1524 144.433 79.0482 146.79 78.0904 151.077C77.9624 151.563 77.8118 152.015 77.6376 152.432C81.7653 143.301 88.2626 138.231 97.1294 137.222C89.9725 136.814 83.1878 138.649 76.7762 142.724H62.2705C70.6353 133.662 84.1968 129.878 102.957 131.374C119.171 132.274 127.945 141.967 129.281 160.449H144.86V170.488H131.54L128.252 161.046H125.26C125.237 160.842 125.213 160.639 125.191 160.435C122.097 152.927 117.318 148.796 110.857 148.039H101.249C94.2401 148.303 87.9131 151.777 82.2693 158.462C80.963 161.26 78.5383 162.647 74.9943 162.624L28.7258 159.951V156.895L72.9123 159.099C75.9935 159.506 78.4172 158.337 80.1823 155.593C85.6459 148.598 92.5783 144.866 100.979 144.396H108.913C116.168 144.761 121.074 147.948 123.63 153.956C120.684 146.123 114.344 142.142 104.611 142.014C94.4685 141.735 85.1508 145.752 76.658 154.064C76.4415 154.314 76.2121 154.545 75.9689 154.755C75.585 155.07 75.1538 155.32 74.6744 155.504L57.2597 155.228L57.5994 152.901C56.3659 154.328 54.3241 155.073 51.4762 155.139L40.4505 154.952C37.5956 154.91 36.1436 153.076 36.0943 149.454C36.1239 143.324 36.4763 137.355 37.1526 131.547ZM18.7338 177.001V163.151L67.4437 166.923V183.766L18.7338 177.001ZM30.4732 145.328H33.7957V153.118H29.159C28.778 149.795 29.2161 147.198 30.4732 145.328ZM89.0619 188.82C86.1647 185.825 84.7157 182.213 84.7157 177.982C84.7157 173.739 86.1647 170.111 89.0619 167.101C91.9591 164.116 95.4627 162.624 99.5708 162.624C103.669 162.624 107.164 164.116 110.055 167.101C112.959 170.111 114.411 173.739 114.411 177.982C114.411 182.213 112.959 185.825 110.055 188.82C107.164 191.824 103.669 193.326 99.5708 193.326C95.4627 193.326 91.9591 191.824 89.0619 188.82ZM190.218 97.5999L186.954 97.0872L179.665 120.69L176.549 119.95L184.026 95.115C187.616 94.4217 189.679 95.25 190.218 97.5999ZM156.328 95.2037C158.157 95.3418 159.09 96.4334 159.129 98.4776V112.51C159.398 114.396 158.45 115.301 156.284 115.222L155.718 112.717L147.154 128.795H142.999C142.638 126.091 143.139 124.759 144.5 124.802L146.204 124.959L153.341 111.795L150.658 114.492C149.184 114.278 148.529 113.516 148.689 112.204V98.1176C148.719 98.0516 148.748 97.9875 148.778 97.9254L148.812 97.8465H144.87C143.797 97.6818 143.083 99.727 142.728 103.98L147.134 104.123V114.388C147.643 115.687 148.402 116.237 149.413 116.04L146.08 121.548L141.69 121.252C138.858 121.101 137.617 119.602 137.969 116.755L141.345 99.2615C141.992 96.602 143.267 95.3201 145.17 95.4157H149.826C148.812 96.3456 148.475 97.1562 148.812 97.8465C149.649 95.9857 151.103 95.0725 153.173 95.1051L154.158 96.3525C154.234 93.2788 153.476 92.0314 151.884 92.6102L148.581 93.7788C146.343 94.755 144.641 94.5805 143.477 93.2561C144.011 92.6743 145.92 92.0018 149.201 91.2395C125.516 89.0376 107.146 90.6577 94.0924 96.1011C110.211 85.6749 132.81 83.5972 161.891 89.8689C166.869 91.5028 169.41 93.6259 169.515 96.2391L158.307 93.6506C157.92 91.2021 156.262 90.1302 153.336 90.4359C155.364 90.3866 156.361 91.9762 156.328 95.2037ZM172.951 103.645L176.672 107.328L172.951 120.537V103.645ZM155.314 116.252C156.627 117.068 158.315 116.476 160.379 114.477L160.483 97.2844C162.602 97.4155 163.566 98.4549 163.372 100.4V117.179C162.926 119.066 161.928 119.861 160.379 119.565V117.021C158.925 120.492 156.683 121.34 153.651 119.565L155.314 116.252ZM165.656 124.496L168.806 126.882L150.993 126.128L152.637 123.742L165.656 124.496ZM181.889 124.595L178.813 125.201L172.951 146.807V131.887L175.609 123.086C178.746 122.534 180.839 123.037 181.889 124.595ZM123.965 95.6524C128.235 95.4325 132.956 95.5242 138.131 95.9285L133.992 110.745C133.359 113.355 131.393 114.623 128.095 114.551C127.918 114.551 127.742 114.544 127.568 114.531L126.854 114.507C122.112 114.132 118.556 113.861 116.183 113.693C112.098 113.394 108.367 113.205 104.99 113.126L110.69 97.3879C115.147 96.4482 119.572 95.8693 123.965 95.6524ZM92.9702 113.245L96.9866 101.115C100.144 99.9291 103.384 98.9312 106.708 98.1226L101.102 113.348C98.421 113.299 95.7098 113.264 92.9702 113.245ZM112.802 121.74H112.713C97.7624 121.204 82.8137 122.33 67.867 125.117C78.9026 120.371 95.6035 118.241 117.97 118.727L112.802 121.74ZM114.411 128.209C116.429 124.018 118.447 121.541 120.465 120.778H129.512V128.49L114.411 128.209ZM135.572 138.282L137.826 154.158C138.213 156.249 139.31 157.45 141.114 157.762C137.626 158.147 135.778 157.34 135.572 155.341V138.282ZM128.996 176.326C130.302 174.728 131.877 173.93 133.721 173.93C135.559 173.93 137.125 174.728 138.422 176.326C139.724 177.93 140.376 179.861 140.376 182.119C140.376 184.141 139.854 185.899 138.81 187.395C138.682 187.562 138.552 187.728 138.422 187.893C137.125 189.497 135.559 190.299 133.721 190.299C131.877 190.299 130.302 189.497 128.996 187.893C128.887 187.755 128.782 187.614 128.681 187.469C127.595 185.963 127.051 184.18 127.051 182.119C127.051 179.861 127.699 177.93 128.996 176.326ZM147.252 170.488V168.708H177.833L177.927 170.488H147.252ZM147.252 167.362V163.753H172.114C173.834 164.288 174.749 165.491 174.86 167.362H147.252ZM146.08 171.947H152.292C153.077 175.422 152.642 178.587 150.988 181.444H147.252L143.058 184.584C145.723 182.343 146.73 178.13 146.08 171.947ZM146.799 186.078V183.386H178.523V186.078H146.799ZM206.102 170.537C207.677 168.279 209.57 167.15 211.782 167.15C213.994 167.15 215.884 168.279 217.452 170.537C219.027 172.796 219.815 175.522 219.815 178.717C219.815 181.915 219.027 184.641 217.452 186.892C217.233 187.217 217.002 187.523 216.763 187.809C215.339 189.469 213.679 190.299 211.782 190.299C209.836 190.299 208.132 189.411 206.673 187.636C206.479 187.4 206.289 187.151 206.102 186.892C204.546 184.641 203.768 181.915 203.768 178.717C203.768 175.522 204.546 172.796 206.102 170.537ZM168.053 156.712C168.043 156.811 168.038 156.904 168.038 156.993C167.91 158.916 166.663 159.725 164.297 159.419C164.271 159.406 164.243 159.399 164.214 159.399H155.024L162.304 156.909C164.231 156.261 165.398 155.245 165.809 153.857L167.758 142.912L168.053 156.712ZM154.753 171.947H169.426C170.47 175.708 169.86 178.873 167.595 181.444H153.232C155.024 178.242 155.531 175.076 154.753 171.947ZM171.971 171.947H176.091C176.59 173.134 176.818 174.623 176.775 176.415C176.746 177.555 176.59 178.574 176.308 179.471C175.993 180.418 175.582 181.076 175.077 181.444H170.288C172.608 178.413 173.169 175.248 171.971 171.947ZM212.555 172.85C211.725 171.028 210.568 169.816 209.084 169.211C211.08 172.468 212.097 175.68 212.136 178.845C212.173 182.106 211.155 184.878 209.084 187.163C210.538 186.769 211.683 185.72 212.52 184.017C213.291 182.452 213.682 180.618 213.692 178.515C213.704 176.418 213.325 174.529 212.555 172.85ZM208.095 175.655C207.616 174.81 206.986 174.214 206.205 173.865C205.391 176.794 205.353 179.677 206.092 182.514C207.014 182.221 207.718 181.669 208.203 180.857C208.643 180.105 208.845 179.245 208.809 178.278C208.786 177.322 208.548 176.447 208.095 175.655ZM93.3935 182.06C93.1503 182.313 93.0223 182.627 93.0095 183.002C93.0095 183.354 93.1375 183.659 93.3935 183.919C93.6465 184.175 93.9575 184.303 94.3287 184.303C94.6959 184.303 95.006 184.175 95.259 183.919C95.512 183.669 95.638 183.36 95.638 182.992C95.6311 182.624 95.5051 182.313 95.259 182.06C95.0001 181.801 94.69 181.673 94.3287 181.68C93.9674 181.68 93.6563 181.807 93.3935 182.06ZM106.088 182.992C106.088 182.62 105.957 182.307 105.694 182.05C105.435 181.797 105.13 181.671 104.778 181.671C104.414 181.671 104.102 181.797 103.843 182.05C103.594 182.307 103.469 182.62 103.469 182.992C103.462 183.35 103.587 183.656 103.843 183.909C104.102 184.168 104.409 184.3 104.764 184.303C105.141 184.3 105.451 184.168 105.694 183.909C105.957 183.656 106.088 183.35 106.088 182.992ZM100.486 184.205C100.227 183.945 99.9173 183.815 99.556 183.815C99.1947 183.815 98.8837 183.945 98.6208 184.205C98.3649 184.461 98.2369 184.772 98.2369 185.137C98.2369 185.495 98.3649 185.805 98.6208 186.069C98.8837 186.325 99.1947 186.453 99.556 186.453C99.9173 186.453 100.227 186.325 100.486 186.069C100.739 185.805 100.865 185.495 100.865 185.137C100.865 184.772 100.739 184.461 100.486 184.205ZM107.87 176.804C107.604 176.545 107.291 176.415 106.929 176.415C106.572 176.415 106.263 176.545 106.004 176.804C105.751 177.06 105.625 177.371 105.625 177.736C105.625 178.098 105.751 178.406 106.004 178.663C106.263 178.919 106.572 179.047 106.929 179.047C107.291 179.047 107.604 178.919 107.87 178.663C108.123 178.406 108.249 178.098 108.249 177.736C108.249 177.371 108.123 177.06 107.87 176.804ZM101.919 174.856C101.213 173.996 100.363 173.565 99.369 173.565C98.3717 173.565 97.5182 173.996 96.8094 174.856C96.3005 175.504 95.9746 176.24 95.8299 177.065L95.7709 177.928C95.7709 177.951 95.7709 177.973 95.7709 177.992L95.8299 178.865C95.955 179.716 96.2808 180.469 96.8094 181.123C97.5182 181.994 98.3717 182.43 99.369 182.43C100.363 182.43 101.213 181.994 101.919 181.123C102.447 180.469 102.775 179.716 102.903 178.865L102.962 177.992C102.962 177.973 102.962 177.951 102.962 177.928L102.903 177.065C102.768 176.24 102.44 175.504 101.919 174.856ZM100.486 169.408C100.227 169.152 99.9173 169.024 99.556 169.024C99.1947 169.024 98.8837 169.152 98.6208 169.408C98.3649 169.668 98.2369 169.977 98.2369 170.335C98.2369 170.697 98.3649 171.006 98.6208 171.262C98.8837 171.528 99.1947 171.662 99.556 171.662C99.9173 171.662 100.227 171.528 100.486 171.262C100.739 171.006 100.865 170.697 100.865 170.335C100.865 169.977 100.739 169.668 100.486 169.408ZM105.714 171.597C105.458 171.341 105.141 171.215 104.764 171.218C104.409 171.215 104.106 171.341 103.853 171.597C103.597 171.854 103.466 172.162 103.459 172.524C103.459 172.892 103.587 173.203 103.843 173.456C104.092 173.722 104.399 173.849 104.764 173.836C105.141 173.849 105.458 173.722 105.714 173.456C105.963 173.203 106.088 172.892 106.088 172.524C106.088 172.162 105.963 171.854 105.714 171.597ZM93.0932 176.804C92.8343 176.545 92.5252 176.415 92.1678 176.415C91.8036 176.415 91.4955 176.545 91.2425 176.804C90.9836 177.06 90.8536 177.371 90.8536 177.736C90.8536 178.098 90.9836 178.406 91.2425 178.663C91.4955 178.919 91.8036 179.047 92.1678 179.047C92.5252 179.047 92.8343 178.919 93.0932 178.663C93.3521 178.406 93.4821 178.098 93.4821 177.736C93.4821 177.371 93.3521 177.06 93.0932 176.804ZM94.3287 171.208C93.9674 171.211 93.6563 171.339 93.3935 171.592C93.1503 171.852 93.0223 172.161 93.0095 172.519C93.0095 172.881 93.1375 173.192 93.3935 173.451C93.6465 173.708 93.9575 173.836 94.3287 173.836C94.6959 173.836 95.006 173.708 95.259 173.451C95.512 173.202 95.638 172.891 95.638 172.519C95.6311 172.161 95.5051 171.852 95.259 171.592C95.0001 171.336 94.69 171.208 94.3287 171.208ZM52.687 153.024C54.1213 152.962 55.1845 152.199 55.8766 150.736H37.5464C37.7955 152.304 38.6982 153.066 40.2536 153.024H52.687ZM55.8372 148.246L56.354 149.218C56.5539 148.291 56.738 147.315 56.9053 146.289L37.5365 146.432C37.5198 147.036 37.5139 147.642 37.5169 148.246H55.8372ZM56.3934 143.794L57.0628 145.209C57.1022 144.884 57.1446 144.553 57.1908 144.218C57.2765 143.498 57.3601 142.762 57.4418 142.009H37.699C37.6626 142.604 37.632 143.199 37.6055 143.794H56.3934ZM66.5774 145.643H65.2632L63.3534 153.522H64.8596L66.5774 145.643ZM74.4431 145.643H70.5102L68.4921 153.631H73.119C74.6124 153.66 75.588 152.784 76.0477 151.003C76.9071 147.564 76.3726 145.778 74.4431 145.643ZM57.7864 137.34H38.0731C37.9943 138.102 37.9274 138.866 37.8713 139.628H56.989L57.5304 141.038C57.6318 139.852 57.7175 138.619 57.7864 137.34ZM56.989 127.632H51.8699L49.3793 130.191H57.245L58.1162 131.202C58.4312 128.894 58.0552 127.704 56.989 127.632ZM38.6933 132.617C38.5722 133.396 38.4599 134.177 38.3586 134.959H57.0382L57.8307 136.334C57.873 135.138 57.9065 133.899 57.9291 132.617H38.6933ZM39.0427 131.34L40.1699 130.191H47.3858L45.0823 127.839H42.1979C40.7143 127.977 39.6629 129.144 39.0427 131.34ZM272.822 178.988C272.339 178.153 271.707 177.563 270.927 177.218C270.119 180.137 270.083 183.017 270.818 185.857C271.741 185.568 272.446 185.013 272.935 184.195C273.368 183.452 273.572 182.592 273.545 181.616C273.513 180.667 273.272 179.79 272.822 178.988ZM277.286 176.198C276.452 174.37 275.298 173.153 273.821 172.549C275.816 175.813 276.828 179.026 276.858 182.188C276.9 185.445 275.888 188.216 273.821 190.501C275.271 190.107 276.413 189.059 277.247 187.36C278.022 185.789 278.413 183.958 278.423 181.868C278.43 179.764 278.051 177.874 277.286 176.198ZM251.277 187.36C252.042 185.789 252.431 183.958 252.444 181.868C252.454 179.764 252.073 177.874 251.302 176.198C250.472 174.37 249.318 173.153 247.842 172.549C249.833 175.813 250.851 179.026 250.893 182.188C250.923 185.445 249.906 188.216 247.842 190.501C249.289 190.107 250.434 189.059 251.277 187.36ZM247.561 181.616C247.532 180.667 247.293 179.79 246.847 178.988C246.362 178.153 245.73 177.563 244.952 177.218C244.138 180.137 244.103 183.017 244.844 185.857C245.766 185.568 246.468 185.013 246.951 184.195C247.391 183.452 247.594 182.592 247.561 181.616ZM276.563 106.288L268.205 131.976L277.207 141.925L284.763 115.616L276.563 106.288ZM255.377 117.805L264.178 127.533L272.999 102.235L264.016 92.0186L255.377 117.805ZM295.119 127.395L288.459 119.812L280.781 145.86L287.79 153.631L295.119 127.395Z" fill="black" fill-opacity="0.06"/>
</svg>
