<svg width="342" height="140" viewBox="0 0 342 140" fill="none" xmlns="http://www.w3.org/2000/svg">
<g opacity="0.06">
<path d="M260.439 5.89589L260.083 5.85234C250.961 4.2551 240.766 2.96708 229.499 1.98719C218.856 1.06935 207.26 0.417176 194.711 0.0328386H194.486C167.868 -0.203425 146.539 0.835265 130.5 3.14673C130.35 3.14673 130.215 3.16089 130.094 3.19028C124.91 4.34438 120.813 6.2247 117.802 8.83013L117.578 9.05333C108.097 16.8707 98.8412 25.1019 89.8099 33.7467C89.3025 34.2225 88.453 34.8301 87.2617 35.5704C86.0966 36.2531 85.2614 36.8443 84.7572 37.3451L83.5461 38.5482C66.2585 40.1161 46.4653 44.2316 24.1689 50.8949L23.8072 50.982C21.3926 51.7844 19.1129 52.8514 16.968 54.183C14.5819 55.6343 12.6737 57.2185 11.2412 58.9355C8.17234 65.2722 6.35513 71.0459 5.78848 76.2579C4.23979 76.9406 3.01772 77.976 2.12227 79.3664C1.31888 80.6402 0.721547 82.3278 0.330265 84.4292L0.198742 85.2784C-0.338311 89.0096 0.21299 92.2357 1.85374 94.9576L2.03459 95.2679L2.3908 96.3349C3.19418 99.0024 3.37393 101.447 2.92785 103.668L1.71674 109.128C1.39122 111.172 1.92827 112.859 3.3279 114.191C4.70122 115.494 6.70038 116.219 9.32317 116.368L26.7171 116.989C29.0407 122.941 32.3343 127.428 36.5978 130.452C13.0771 131.515 1.31669 132.729 1.31669 134.094C1.31669 135.723 17.9358 137.101 51.175 138.225C84.4427 139.409 124.598 140 171.639 140C218.706 140 258.859 139.409 292.098 138.225C325.366 137.101 342 135.723 342 134.094C342 132.79 331.508 131.635 310.522 130.626C313.325 127.487 315.589 121.741 317.318 113.391C325.22 110.669 329.081 106.45 328.903 100.734C328.903 100.614 328.903 100.51 328.903 100.423L331.407 93.4932C335.817 86.7428 336.173 81.5461 332.476 77.902C332.418 77.8442 332.359 77.7844 332.3 77.7223C332.538 66.1737 330.108 57.7193 325.012 52.3593C324.949 52.3016 324.889 52.2428 324.831 52.1851L323.357 45.6525C321.537 40.9457 315.605 38.325 305.557 37.7915C296.705 28.7003 286.273 19.7723 274.26 11.0077L273.586 10.4742C269.831 8.22369 265.448 6.69831 260.439 5.89589ZM265.048 10.0278L266.659 10.7409C268.625 11.4236 271.977 13.6588 276.715 17.4478C285.122 23.7267 292.994 30.4641 300.329 37.6609C301.283 38.5754 302.251 39.5227 303.234 40.5026C306.481 43.464 309.552 45.892 312.446 47.7865L306.632 40.8129C313.818 41.6697 318.021 43.4891 319.241 46.2731L321.165 53.4263C323.609 56.2103 325.278 58.9333 326.174 61.5976L324.519 61.6466L325.1 65.2885C323.014 61.971 320.211 60.0602 316.693 59.5561C309.689 59.2001 297.75 59.126 280.875 59.3329C282.007 62.6787 282.516 66.3805 282.398 70.4384C281.77 66.2651 280.444 62.5198 278.42 59.2023L277.077 59.0662C277.048 59.5703 277.033 60.0755 277.033 60.5796C276.942 61.3199 276.463 61.6901 275.598 61.6901L273.499 61.6466C272.454 61.4691 272.021 60.4021 272.2 58.4456H272.068C271.71 58.475 271.502 58.5196 271.444 58.5817C271.353 58.6394 271.292 58.7428 271.263 58.892L227.619 58.8484C226.665 56.8342 225.489 54.4639 224.09 51.7387C225.668 60.7102 226.07 67.833 225.295 73.1059C224.967 67.7742 223.698 62.7702 221.492 58.0917C217.199 58.1211 213.146 58.1647 209.332 58.2224C178.328 58.8179 162.024 61.0837 160.416 65.0218C167.241 74.3776 169.625 80.4932 167.568 83.3676L179.24 83.2315C182.904 69.6109 188.598 62.2073 196.322 61.0205C201.476 60.6362 205.813 63.0946 209.332 68.397C211.776 72.0411 213.833 77.0603 215.502 83.4547L225.114 83.275C226.068 84.8755 226.247 87.9709 225.652 92.5623C227.592 90.2214 228.024 87.1108 226.95 83.2315L281.993 82.0774C282.65 82.8755 282.905 85.9262 282.755 91.2285C283.766 88.7712 284.243 86.9203 284.185 85.6758C284.127 84.4313 283.993 83.2315 283.785 82.0774L292.279 81.8978C295.11 68.9599 299.374 62.3564 305.07 62.0875C305.187 62.0581 305.32 62.044 305.47 62.044C307.706 61.8077 309.912 63.0816 312.09 65.8656C314.622 69.0633 316.364 73.7123 317.318 79.8128L328.322 79.3664V79.4099C328.468 79.5003 328.616 79.6059 328.766 79.7256C330.465 81.0866 331.18 83.0845 330.914 85.7193C330.914 85.8097 330.914 85.899 330.914 85.9861L330.645 87.0966C330.317 88.842 329.661 90.5296 328.678 92.1594L326.174 99.2256C326.648 102.75 323.875 106.065 317.855 109.172C318.542 102.805 318.169 96.8542 316.737 91.3157C316.766 91.1665 316.811 91.0347 316.874 90.9182C317.798 87.6595 317.501 84.5054 315.981 81.4568C315.235 73.8463 312.61 70.1586 308.106 70.3949C308.048 70.3949 307.988 70.409 307.93 70.4384C303.009 70.3807 298.477 74.1707 294.334 81.8107C294.246 81.9881 294.173 82.1514 294.115 82.3006C294.115 82.33 294.129 82.3735 294.159 82.4313C294.397 82.907 294.529 83.4852 294.559 84.1678C294.617 85.5865 294.184 87.4527 293.26 89.7641C293.23 89.8219 293.202 89.8948 293.172 89.9819C292.606 91.1687 292.025 91.9983 291.43 92.4697L217.07 94.7834C217.187 100.557 216.858 104.318 216.083 106.063C217.037 108.284 217.47 110.388 217.382 112.373L280.025 111.306L289.643 95.5836C288.062 99.9355 287.18 103.872 287.002 107.397C287.955 112.31 287.717 115.02 286.289 115.525H285.571C264.495 116.769 241.005 117.688 215.102 118.279C215.848 114.428 216.16 110.402 216.039 106.199C216.01 106.109 216.01 106.034 216.039 105.976C216.01 105.355 215.981 104.718 215.952 104.065C215.743 100.955 215.325 97.7579 214.697 94.4731L214.521 93.0033C215.088 90.1038 214.892 87.5126 213.935 85.2294C213.905 85.1423 213.877 85.053 213.847 84.9626C212.836 80.5204 211.33 77.0712 209.332 74.6139C206.559 71.1809 202.818 69.7307 198.108 70.2642C192.058 70.5876 186.783 75.3401 182.282 84.5217L182.057 85.0116C181.399 89.5703 179.759 93.5226 177.136 96.8684L173.382 109.308C174.782 114.668 172.678 117.495 167.074 117.789C166.929 117.789 166.781 117.803 166.63 117.833L43.037 114.37L11.9153 112.547C8.13069 112.282 6.37157 110.921 6.6379 108.464L6.99411 105.976C6.93602 108.611 8.21837 110.149 10.8412 110.592C11.0494 110.625 11.2577 110.656 11.4659 110.685C61.3099 113.32 113.344 114.978 167.568 115.661C170.848 115.157 171.833 112.89 170.521 108.861L174.407 95.7578C175.839 94.9881 177.286 92.9161 178.747 89.5409C178.805 89.5409 178.865 89.5268 178.928 89.4974C180.24 89.1131 180.879 87.9426 180.846 85.9861L131.886 86.0296L150.486 87.8098C149.025 89.3776 148.16 91.4931 147.894 94.1573L161.89 95.8939L6.99411 92.9161L7.48732 92.9597L14.0142 96.6942C15.3546 95.2429 16.8167 94.4862 18.3983 94.4241C20.2758 94.337 21.8266 94.7671 23.0509 95.7143C23.3468 95.9212 23.6132 96.1585 23.851 96.4274L122.63 99.3562C122.601 99.3856 122.57 99.4139 122.537 99.4433C120.693 101.102 119.559 103.072 119.14 105.355C118.723 107.606 119.142 109.529 120.395 111.126C120.99 111.899 121.704 112.492 122.537 112.906L19.023 109.574C18.8444 109.632 18.68 109.691 18.5298 109.749C18.1133 109.868 17.6968 109.928 17.2803 109.928C16.5054 109.928 15.8358 109.721 15.2691 109.308L10.5288 108.997C10.291 108.968 10.0663 108.923 9.85474 108.861C8.36415 108.448 7.45663 107.234 7.13111 105.219L7.84353 100.069C7.9641 98.1129 7.59145 96.2619 6.72558 94.5166C6.6379 94.3392 6.54803 94.1606 6.45706 93.9831C5.29527 92.6516 4.74397 90.5187 4.80206 87.5866L4.85138 86.2528C4.85138 82.8199 6.37157 80.4061 9.41085 79.0125L47.865 80.6565C48.4897 78.8492 48.4601 75.8278 47.7773 71.5925L101.658 72.2186L98.6603 78.5226C98.1858 79.7387 98.3502 80.6859 99.1536 81.3643C99.9285 82.0469 101.151 82.3441 102.82 82.257L161.797 82.4748C162.692 82.33 163.364 81.901 163.814 81.19C164.26 80.4497 164.364 79.5917 164.126 78.6151C163.26 76.4234 162.469 74.6302 161.753 73.2366C160.8 71.3715 159.712 69.698 158.492 68.2173C156.106 65.1687 153.453 63.5846 150.53 63.4648C150.442 63.4354 150.352 63.4213 150.261 63.4213C150.144 63.4213 149.341 63.4213 147.85 63.4213L140.874 63.3342C141.469 61.6466 142.304 60.2987 143.378 59.2894C144.302 58.4619 145.554 57.7673 147.132 57.2044C147.491 57.114 147.863 57.0106 148.25 56.8941C145.419 57.4853 143.318 58.2256 141.948 59.1152C140.395 60.1495 139.44 61.5562 139.082 63.3342L113.15 63.2416C111.002 63.2416 109.034 63.8927 107.248 65.196C105.637 66.3827 104.056 68.1901 102.507 70.618L47.3279 69.5075C46.6122 65.8351 45.3748 63.6423 43.6179 62.9313C39.5045 62.5176 36.3293 62.2214 34.0934 62.044C30.1882 61.6879 26.7149 61.4963 23.6756 61.4669C24.0921 60.5491 24.6434 59.7336 25.3306 59.0226C25.8348 58.4597 26.5637 57.8086 27.5172 57.0683C27.0426 57.2457 26.5823 57.4384 26.1362 57.6453C23.9584 58.3563 22.4229 59.6301 21.5274 61.4669L15.0883 61.5105C15.9837 59.6737 17.22 58.2681 18.7983 57.2915C20.0511 56.5217 22.481 55.4863 26.0869 54.183L26.3993 54.1395C35.1346 51.3272 44.898 48.9133 55.6906 46.8991C63.5601 45.4478 71.6838 44.2621 80.0608 43.3443C81.8473 43.1668 83.636 42.9882 85.4258 42.8108C85.4554 42.7814 85.4839 42.7672 85.5135 42.7672C111.12 40.6953 133.835 39.7916 153.659 40.0562C173.424 40.2924 191.982 41.3137 209.332 43.1211C212.371 43.4183 215.382 43.7449 218.363 44.101C218.9 42.4134 219.393 40.7094 219.843 38.9892C220.854 34.8736 221.569 30.6546 221.985 26.3322C222.435 21.5339 222.509 16.6181 222.21 11.5847C190.553 7.76313 158.045 7.62921 124.686 11.1819C114.846 17.4892 107.037 23.2509 101.258 28.4662C95.4413 33.6781 91.5658 37.0381 89.6291 38.5482C89.6872 38.4862 89.7475 38.4263 89.8099 38.3686C89.868 38.2815 89.9415 38.2074 90.0291 38.1454C100.792 27.5157 111.391 18.0542 121.825 9.76103C125.789 7.45283 131.303 6.00259 138.369 5.41138C169.522 3.21968 199.511 3.21968 228.337 5.41138L228.693 5.45493C228.964 5.45493 229.232 5.46909 229.499 5.49848C244.405 6.41632 256.255 7.92645 265.048 10.0278ZM306.407 81.9903C308.763 81.9903 310.761 84.108 312.402 88.3433C314.071 92.6037 314.906 97.7557 314.906 103.798C314.906 109.808 314.071 114.945 312.402 119.21C310.761 123.445 308.763 125.563 306.407 125.563C304.141 125.563 302.16 123.445 300.461 119.21C300.344 118.916 300.255 118.62 300.192 118.323C300.075 118.116 300.017 117.923 300.017 117.746C300.075 117.982 300.195 118.189 300.373 118.366C301.297 118.573 301.714 117.655 301.623 115.612C301.444 114.164 301.086 113.024 300.549 112.193C299.836 112.255 299.151 112.002 298.493 111.436C298.135 109.099 297.956 106.553 297.956 103.798C297.956 97.7557 298.792 92.6037 300.461 88.3433C300.76 87.6029 301.058 86.9518 301.354 86.3889C301.354 86.3269 301.385 86.2964 301.447 86.2964C302.905 83.4253 304.559 81.9903 306.407 81.9903ZM273.049 64.9292C273.348 65.1393 273.707 65.2591 274.123 65.2885L276.047 65.3756C276.138 65.3756 276.228 65.3615 276.315 65.3321C277.148 65.1252 277.417 64.4284 277.121 63.2416C276.642 64.6646 275.704 65.0947 274.304 64.5318C276.061 63.7914 277.165 62.4283 277.614 60.4435C278.181 63.6118 277.941 65.4333 276.896 65.9091C274.394 66.0289 273.112 65.7022 273.049 64.9292ZM279.713 96.0681C277.656 100.986 275.093 104.895 272.024 107.794L220.243 108.905C221.167 107.279 221.867 105.666 222.342 104.065C222.849 102.32 223.312 100.366 223.728 98.2021C223.907 101.697 223.684 104.748 223.059 107.353L269.608 106.33C272.648 104.849 276.016 101.428 279.713 96.0681ZM276.315 119.477C277.39 123.535 278.894 126.88 280.831 129.515C260.054 128.895 236.833 128.481 211.168 128.274C212.271 126.26 213.239 123.979 214.072 121.431L276.315 119.477ZM123.343 16.7836C130.558 15.5392 138.728 15.3301 147.85 16.1576L139.8 36.3271C127.012 36.2368 114.09 36.7539 101.033 37.8786C107.025 30.4173 114.462 23.3849 123.343 16.7836ZM185.142 14.5135C185.351 14.5135 185.573 14.5135 185.811 14.5135C197.706 14.7531 209.302 15.5239 220.599 16.8272C220.42 20.173 220.168 23.3413 219.843 26.3322C219.306 30.9518 218.56 35.1708 217.607 38.9892C217.457 39.5521 217.307 40.1139 217.157 40.6768L211.836 40.5897C211.241 40.0268 210.645 39.4933 210.05 38.9892C209.808 38.8117 209.57 38.6331 209.332 38.4557C209.211 38.3392 209.093 38.2357 208.975 38.1454C202.742 33.4963 196.289 32.8899 189.614 36.3271L182.145 17.1375C182.057 16.9306 181.997 16.7531 181.964 16.604C181.698 15.243 182.757 14.5462 185.142 14.5135ZM40.4449 64.5754C41.3359 64.6657 42.2445 64.7692 43.1685 64.8857C45.0175 67.9963 46.0762 72.5724 46.347 78.6151L10.3041 77.3249C10.7206 72.7052 12.1071 68.0409 14.4635 63.3342C14.7923 63.3342 15.119 63.3342 15.4445 63.3342C16.877 63.3342 18.2942 63.3483 19.6971 63.3777C18.3851 66.9892 17.4151 70.8826 16.7871 75.0603C17.9489 70.7378 19.2608 66.8585 20.7219 63.4213C27.2794 63.541 33.5103 63.897 39.4146 64.4883C38.3701 67.8929 37.5349 71.623 36.9102 75.6808C37.9558 71.5359 39.134 67.8341 40.4449 64.5754ZM74.8711 129.205C76.6609 127.401 78.3915 125.166 80.0608 122.498L114.312 124.763L123.124 122.634L152.366 122.988C153.469 125.329 155.229 127.062 157.643 128.187C126.937 128.245 99.3454 128.584 74.8711 129.205ZM183.931 87.7608C187.063 82.6686 190.849 80.1231 195.292 80.1231C199.705 80.1231 203.476 82.6686 206.603 87.7608C207.706 89.5388 208.616 91.4648 209.332 93.5367C210.644 97.268 211.299 101.443 211.299 106.063C211.299 110.683 210.644 114.873 209.332 118.633C208.616 120.677 207.706 122.587 206.603 124.365C205.679 125.876 204.696 127.164 203.654 128.231C201.181 130.746 198.393 132.003 195.292 132.003C192.132 132.003 189.315 130.731 186.841 128.187C185.825 127.12 184.855 125.846 183.931 124.365C181.816 120.961 180.4 117.096 179.684 112.77C179.626 112.386 179.567 112.03 179.509 111.703C179.479 111.351 179.465 111.026 179.465 110.728C179.432 110.671 179.416 110.611 179.416 110.549C179.27 109.098 179.196 107.602 179.196 106.063C179.196 98.9284 180.775 92.8269 183.931 87.7608ZM149.949 65.9527C151.202 65.9821 152.439 66.3522 153.659 67.0632C156.523 68.7802 159.267 72.4668 161.89 78.1251C162.573 80.11 161.663 80.9973 159.161 80.7872L104.831 80.6565C103.162 80.834 102.014 80.6424 101.389 80.0795C100.765 79.5166 100.69 78.6129 101.165 77.3684L104.924 70.1717C107.398 66.619 110.824 64.9597 115.205 65.196H115.698C114.654 69.6088 114.041 74.186 113.862 78.9254C114.52 74.0695 115.476 69.5097 116.728 65.245L141.855 65.773C141.08 69.7144 140.618 73.683 140.468 77.6788C141.184 73.6209 142.14 69.6686 143.334 65.822L149.949 65.9527ZM121.244 105.219C121.751 106.464 122.466 107.323 123.387 107.794C124.611 110.995 126.535 112.476 129.157 112.236L129.826 112.106C130.87 111.837 131.87 111.229 132.824 110.282L132.961 110.195C133.102 109.996 133.256 109.795 133.426 109.596C134.272 108.734 134.892 107.424 135.284 105.666C135.759 102.642 135.416 100.273 134.254 98.556L146.907 98.5124C146.582 101.738 145.764 104.479 144.452 106.733C149.19 109.338 155.287 111.589 162.74 113.483L129.919 112.547C128.607 113.229 127.206 113.57 125.716 113.57C125 113.57 124.329 113.496 123.705 113.347C120.991 110.948 120.17 108.238 121.244 105.219ZM128.976 98.2021C130.109 97.759 131.138 97.7884 132.062 98.2892C133.673 99.2691 134.418 101.504 134.298 104.996L134.122 106.02C133.643 108.328 132.69 109.838 131.262 110.549C131.199 110.549 131.154 110.549 131.125 110.549C130.708 110.578 130.275 110.578 129.826 110.549C126.607 109.986 125.223 107.426 125.672 102.868C126.176 100.704 127.22 99.1929 128.801 98.3328C128.831 98.2751 128.889 98.2315 128.976 98.2021ZM190.102 115.437C189.211 115.053 188.406 114.341 187.691 113.303L183.619 115.661C182.994 116.368 182.832 117.345 183.131 118.589C183.161 118.68 183.205 118.755 183.263 118.813C183.383 119.11 183.533 119.392 183.712 119.656C185.32 122.382 187.167 124.129 189.252 124.899C190.297 124.837 190.849 124.052 190.907 122.542L190.102 115.437ZM201.55 114.55C201.821 112.862 201.462 111.988 200.476 111.926L196.903 111.839C196.695 112.195 196.484 112.536 196.273 112.862C195.648 113.839 194.963 114.563 194.217 115.035L194.574 122.275C194.961 123.519 195.782 123.712 197.034 122.852C197.871 121.995 198.662 120.93 199.407 119.656C200.27 118.146 200.969 116.534 201.506 114.817C201.506 114.726 201.521 114.637 201.55 114.55ZM193.368 111.752C193.218 111.483 193.039 111.349 192.831 111.349C192.623 111.349 192.429 111.483 192.25 111.752C192.13 112.046 192.069 112.37 192.069 112.726C192.069 113.082 192.13 113.393 192.25 113.657C192.429 113.926 192.623 114.06 192.831 114.06C193.039 114.06 193.218 113.926 193.368 113.657C193.547 113.393 193.637 113.082 193.637 112.726C193.637 112.37 193.548 112.046 193.368 111.752ZM196.859 106.417C196.68 106.181 196.484 106.063 196.273 106.063C196.064 106.063 195.902 106.181 195.785 106.417C195.606 106.656 195.516 106.954 195.516 107.31C195.516 107.666 195.606 107.961 195.785 108.197C195.902 108.462 196.064 108.594 196.273 108.594C196.484 108.594 196.68 108.462 196.859 108.197C196.976 107.961 197.034 107.666 197.034 107.31C197.034 106.954 196.976 106.656 196.859 106.417ZM188.403 110.326C188.615 110.326 188.809 110.193 188.984 109.928C189.105 109.692 189.165 109.397 189.165 109.041C189.165 108.714 189.105 108.418 188.984 108.154C188.809 107.914 188.615 107.794 188.403 107.794C188.195 107.794 188.033 107.914 187.915 108.154C187.737 108.418 187.647 108.714 187.647 109.041C187.647 109.397 187.737 109.692 187.915 109.928C188.033 110.193 188.195 110.326 188.403 110.326ZM188.896 99.7101C188.718 100.007 188.628 100.363 188.628 100.777C188.628 101.191 188.718 101.547 188.896 101.844C189.075 102.171 189.3 102.334 189.57 102.334C189.808 102.334 190.031 102.171 190.239 101.844C190.418 101.547 190.507 101.191 190.507 100.777C190.507 100.363 190.418 100.007 190.239 99.7101C190.031 99.3867 189.808 99.2256 189.57 99.2256C189.301 99.2256 189.076 99.3867 188.896 99.7101ZM193.637 99.2256C193.486 99.4902 193.412 99.7863 193.412 100.113C193.412 100.469 193.486 100.779 193.637 101.044C193.787 101.28 193.965 101.398 194.174 101.398C194.382 101.398 194.561 101.28 194.711 101.044C194.861 100.779 194.935 100.469 194.935 100.113C194.935 99.7863 194.861 99.4902 194.711 99.2256C194.561 98.9861 194.382 98.8663 194.174 98.8663C193.965 98.8663 193.787 98.9861 193.637 99.2256ZM198.196 94.6908H198.152L196.766 99.7591C197.511 101.178 197.944 102.835 198.065 104.729L201.375 106.063C202.178 106.39 202.594 105.827 202.624 104.375C202.624 104.256 202.624 104.138 202.624 104.022C202.594 103.931 202.58 103.856 202.58 103.798C202.372 100.366 201.67 97.3148 200.476 94.6473C200.446 94.6473 200.432 94.6331 200.432 94.6037C199.45 93.4202 198.705 93.4496 198.196 94.6908ZM180.49 106.107C180.49 106.818 180.519 107.53 180.577 108.241C180.969 109.721 181.49 110.298 182.145 109.972L185.586 107.174C185.557 106.76 185.542 106.332 185.542 105.889C185.542 103.962 185.841 102.258 186.436 100.777L184.2 96.5581C184.17 96.5287 184.156 96.5004 184.156 96.471C183.531 95.3746 182.652 95.8635 181.52 97.9354C180.834 100.421 180.49 103.145 180.49 106.107ZM194.711 87.6737C193.695 87.2023 192.652 86.966 191.582 86.966C190.449 86.966 189.375 87.2306 188.359 87.7608C186.718 89.5388 186.198 90.9161 186.797 91.8927C186.797 91.9548 186.827 92.0146 186.885 92.0723L186.973 92.1594L190.37 96.2478C190.82 96.0986 191.299 96.0246 191.806 96.0246C192.102 96.0246 192.4 96.0387 192.699 96.0681L195.335 91.0925C195.844 89.6117 195.636 88.4718 194.711 87.6737ZM194.086 81.8107C193.191 81.8107 192.325 81.9282 191.488 82.1645C192.088 82.048 192.699 81.9903 193.324 81.9903C194.965 81.9903 196.499 82.404 197.928 83.2315C199.868 84.3856 201.627 86.3106 203.205 89.0074C205.291 92.5318 206.573 96.6038 207.052 101.223L207.277 105.753C207.277 105.782 207.277 105.81 207.277 105.84C207.277 106.464 207.277 107.101 207.277 107.751L206.871 111.703C206.304 115.761 205.082 119.359 203.205 122.498C201.656 125.166 199.928 127.076 198.021 128.231C196.56 129.087 194.993 129.515 193.324 129.515C191.625 129.515 190.031 129.072 188.54 128.187C186.633 127.03 184.903 125.133 183.35 122.498C181.893 120.07 180.821 117.361 180.134 114.37C180.821 117.629 181.967 120.546 183.575 123.119C184.916 125.31 186.392 127 188.003 128.187C188.302 128.394 188.615 128.601 188.94 128.808C190.522 129.784 192.237 130.272 194.086 130.272C195.963 130.272 197.692 129.784 199.27 128.808C199.569 128.63 199.868 128.437 200.163 128.231C201.745 127.044 203.221 125.34 204.591 123.119C207.485 118.44 208.932 112.756 208.932 106.063C208.932 99.3998 207.485 93.7001 204.591 88.9639C203.372 86.9791 202.045 85.3949 200.613 84.2114C198.644 82.6109 196.469 81.8107 194.086 81.8107ZM300.729 105.355C300.609 105.149 300.49 105.045 300.373 105.045C300.253 105.045 300.134 105.149 300.017 105.355C299.896 105.62 299.836 105.916 299.836 106.243C299.836 106.569 299.896 106.866 300.017 107.13C300.134 107.395 300.253 107.527 300.373 107.527C300.49 107.527 300.609 107.395 300.729 107.13C300.85 106.866 300.91 106.569 300.91 106.243C300.91 105.916 300.85 105.62 300.729 105.355ZM300.373 99.7591C300.49 99.5816 300.549 99.3584 300.549 99.0895C300.549 98.8249 300.49 98.6028 300.373 98.4253C300.253 98.2479 300.134 98.1586 300.017 98.1586C299.896 98.1586 299.776 98.2479 299.655 98.4253C299.538 98.6028 299.48 98.8249 299.48 99.0895C299.48 99.3584 299.538 99.5816 299.655 99.7591C299.776 99.9954 299.896 100.113 300.017 100.113C300.134 100.113 300.253 99.9954 300.373 99.7591ZM303.815 89.7151C302.683 88.2671 301.893 88.2671 301.447 89.7151L300.729 93.2264C301.713 94.6778 302.264 96.2772 302.384 98.0225L304.264 96.7377C304.859 96.2619 305.128 95.2984 305.07 93.847C304.891 92.2498 304.472 90.8725 303.815 89.7151ZM306.051 105.306V105.045C306.051 104.835 306.051 104.656 306.051 104.512C305.872 103.651 305.424 103.577 304.708 104.288L303.371 105.442L303.19 107.751L303.902 113.614C305.277 111.897 305.993 109.128 306.051 105.306ZM306.812 84.6524C306.692 84.623 306.588 84.5946 306.5 84.5652C305.842 84.4455 305.127 84.5489 304.352 84.8755H304.439L304.171 84.9626C306.527 84.8178 308.451 86.5501 309.942 90.1615C311.403 93.7142 312.134 98.0083 312.134 103.042C312.134 108.047 311.374 112.31 309.854 115.835C308.363 119.388 306.558 121.164 304.439 121.164C304.023 121.164 303.398 120.972 302.565 120.587C303.519 121.477 304.233 121.967 304.708 122.057C304.829 122.057 304.979 122.057 305.157 122.057C307.451 122.057 309.404 120.206 311.016 116.504C312.656 112.832 313.476 108.39 313.476 103.178C313.476 97.9659 312.656 93.5095 311.016 89.8077C309.763 87.0237 308.362 85.3056 306.812 84.6524ZM149.28 43.8778C149.01 43.8778 148.785 43.8919 148.606 43.9213C128.337 48.0369 113.881 52.9385 105.237 58.6252C120.496 52.2885 135.744 47.8463 150.979 45.2986C151.187 45.2409 151.41 45.1952 151.648 45.1625C163.126 44.0988 175.051 44.1739 187.422 45.3857C175.347 43.8756 162.723 43.3737 149.549 43.8778C149.458 43.8778 149.368 43.8778 149.28 43.8778ZM58.5074 76.2143C58.8362 77.4882 60.3564 78.1687 63.0669 78.2558L88.7358 78.7893C92.9994 78.8187 94.7278 77.7386 93.92 75.5502L96.5176 74.5267L51.038 73.6394L58.2827 74.9242C54.6472 77.3227 54.5727 78.7316 58.058 79.1486C56.6299 77.755 56.7801 76.7772 58.5074 76.2143ZM50.5009 106.776C47.8485 107.633 45.1063 108.164 42.2752 108.371L97.4986 109.798C97.7364 109.765 97.9611 109.749 98.1726 109.749C101.091 109.484 102.461 107.279 102.283 103.134L108.453 101.844L34.7181 100.467L45.5414 102.111C45.7211 104.923 47.3739 106.479 50.5009 106.776ZM22.0645 96.5145H22.1083C21.3334 95.5673 20.3656 95.0937 19.2039 95.0937C17.7713 95.0937 16.4605 95.8036 15.2691 97.2222C14.1073 98.703 13.3916 100.465 13.1209 102.508C12.9127 104.138 13.0475 105.575 13.5264 106.82C13.5845 103.205 14.4033 100.777 15.9815 99.5359C14.5534 104.301 15.8807 107.44 19.9656 108.954C20.4117 108.627 20.8282 108.211 21.2151 107.707C21.3652 107.53 21.4978 107.366 21.6151 107.217C21.648 107.188 21.6644 107.159 21.6644 107.13H21.6151C22.9884 105.679 23.7337 103.931 23.851 101.888C24.0012 99.7569 23.406 97.9659 22.0645 96.5145ZM17.9489 99.8897C18.5484 98.0824 19.5623 97.0012 20.9904 96.6452C22.1522 97.7122 22.7331 99.3856 22.7331 101.664C22.7331 104.125 21.9582 105.858 20.4095 106.863C17.9653 106.094 17.1017 103.918 17.8174 100.336C17.847 100.159 17.8908 100.01 17.9489 99.8897ZM51.6682 56.8451L52.9615 59.1152C56.2715 54.9375 73.6819 50.0947 105.193 44.5855C74.4853 49.2966 55.0494 53.4568 46.884 57.0683L51.6682 56.8451ZM266.435 14.2032C266.552 14.2936 266.685 14.397 266.835 14.5135C270.948 17.8016 275.108 21.3423 279.313 25.1345C279.492 25.3087 279.686 25.5014 279.894 25.7116C285.794 32.1647 290.221 38.3522 293.172 44.2752L263.437 19.7995C269.312 29.7803 273.934 39.8787 277.302 50.0947C277.302 50.1567 277.316 50.2308 277.346 50.3179L277.833 51.8258L276.896 51.1617H239.516C234.299 51.1323 230.663 49.9782 228.605 47.6994C229.08 49.3249 230.063 50.4507 231.554 51.0746C228.394 50.1567 225.429 48.4376 222.659 45.9192C225.162 49.8279 227.786 51.9162 230.529 52.1851C233.269 52.4497 234.743 52.5226 234.951 52.4029L277.209 52.4954L308.106 53.116L307.125 52.049C307.004 51.8999 306.886 51.7681 306.768 51.6516C288.673 31.248 275.064 18.0989 265.941 12.2053C262.931 11.3779 260.114 10.815 257.491 10.5177C257.371 10.4883 257.252 10.4742 257.135 10.4742L257.179 10.5177L256.729 10.4742C248.414 9.49755 239.979 9.14261 231.422 9.40718C229.157 9.52695 227.964 10.9783 227.844 13.7623C228.468 12.3109 229.899 11.539 232.135 11.4486C231.151 11.6261 230.198 12.2053 229.274 13.1852C228.411 14.0421 227.964 14.9 227.931 15.7602C227.931 16.0541 227.649 20.0804 227.082 27.8401C226.307 36.0745 225.353 41.7764 224.221 44.9448L226.101 46.8066C226.904 42.7531 227.844 40.532 228.918 40.1433C229.005 40.1139 229.095 40.0856 229.186 40.0562L240.004 40.2358C242.002 40.1455 243.464 40.4841 244.388 41.2538C244.538 41.3736 244.673 41.5075 244.794 41.6567C245.506 42.4547 246.041 43.7286 246.399 45.4783V45.5218C246.728 46.9732 246.638 48.0238 246.131 48.6738C245.835 49.0582 245.389 49.3107 244.794 49.4305C244.494 49.4882 244.15 49.5176 243.763 49.5176L242.689 49.5612C244.567 49.0603 245.566 48.1131 245.687 46.7195C244.879 43.9355 244.209 42.7073 243.676 43.034C242.752 45.549 241.125 47.0298 238.798 47.4762L229.099 47.5197C232.138 49.4142 236.132 50.3614 241.078 50.3614L274.973 50.2743C274.943 50.1545 274.915 50.0511 274.885 49.964C269.876 34.8595 263.497 22.2874 255.748 12.2489L255.655 11.8079L263.169 12.8749C264.302 13.0491 265.39 13.4923 266.435 14.2032ZM235.269 16.9143L251.32 17.4042C255.551 24.0675 259.411 31.7358 262.9 40.41L251.233 40.1923L250.471 41.9234C250.022 37.2744 248.129 34.5056 244.794 33.6161C244.344 33.4669 243.882 33.3787 243.407 33.3493C243.257 33.3199 243.108 33.3058 242.958 33.3058L229.723 33.039L230.704 19.0047C230.734 18.7358 230.794 18.4843 230.885 18.248C231.214 17.2104 232.361 16.7368 234.327 16.8272C234.627 16.8272 234.94 16.8566 235.269 16.9143Z" fill="black"/>
<path d="M179.509 111.705C179.567 111.44 179.582 111.218 179.553 111.041C179.523 110.954 179.494 110.85 179.465 110.73C179.465 111.028 179.48 111.353 179.509 111.705Z" fill="white"/>
</g>
</svg>
