<svg width="11" height="9" viewBox="0 0 11 9" fill="none" xmlns="http://www.w3.org/2000/svg">
<path d="M3.88011 6.16015C5.49027 4.36546 7.03851 2.63412 8.59707 0.902779C8.76221 0.723311 8.91704 0.533285 9.0925 0.364374C9.55697 -0.0895758 10.1763 -0.121247 10.6201 0.279918C11.0846 0.69164 11.1362 1.3884 10.7027 1.88458C9.78405 2.92972 8.85511 3.9643 7.91584 4.99888C6.90433 6.12848 5.88249 7.26863 4.85034 8.40878C4.13815 9.20056 3.49821 9.20056 2.82731 8.38767C2.00158 7.3742 1.17586 6.36073 0.350132 5.34726C-0.134982 4.73496 -0.114339 4.05931 0.40174 3.62648C0.917818 3.19364 1.55776 3.29921 2.06351 3.92207C2.65184 4.63995 3.25049 5.37893 3.88011 6.16015Z" fill="#00C767"/>
</svg>
