<svg width="10" height="10" viewBox="0 0 10 10" fill="none" xmlns="http://www.w3.org/2000/svg">
<path d="M3.7123 4.98615C3.61086 4.91118 3.54843 4.87172 3.49771 4.82437C2.4443 3.75898 1.38699 2.69753 0.337478 1.62819C-0.00195479 1.28096 -0.033167 0.767989 0.251644 0.385238C0.528652 0.014324 1.03195 -0.111945 1.43771 0.109025C1.54305 0.168214 1.64059 0.251078 1.72642 0.337887C2.76813 1.3796 3.80593 2.42132 4.83984 3.46698C4.89056 3.51828 4.92567 3.58536 4.97249 3.65244C5.05832 3.56957 5.11294 3.52222 5.15976 3.47487C6.20147 2.42526 7.23927 1.37171 8.28098 0.322104C8.76867 -0.167187 9.52947 -0.0448644 9.81818 0.562803C9.99765 0.941609 9.92352 1.35198 9.6153 1.66371C8.5814 2.70937 7.54749 3.75898 6.50969 4.80464C6.45897 4.85593 6.39654 4.89145 6.32241 4.95063C6.40044 5.0335 6.44336 5.0848 6.49408 5.13215C7.5553 6.19754 8.61651 7.26687 9.67772 8.33226C9.92742 8.58086 10.0484 8.87285 9.98204 9.22404C9.84939 9.9343 9.00666 10.2381 8.41363 9.7883C8.3395 9.73306 8.27708 9.66598 8.21075 9.60284C7.18855 8.56902 6.16635 7.53914 5.14806 6.50532C5.09734 6.45402 5.06612 6.38299 5.02711 6.32381C4.9998 6.32381 4.97249 6.3238 4.94518 6.32775C4.90616 6.38694 4.87495 6.45797 4.82423 6.50532C3.78252 7.56282 2.73301 8.61637 1.69521 9.67781C1.39479 9.98165 1.03975 10.0487 0.653501 9.95403C0.0214543 9.80014 -0.208735 9.00701 0.216531 8.48221C0.26725 8.42302 0.321872 8.36778 0.376493 8.31253C1.4104 7.26687 2.4482 6.21727 3.48211 5.17161C3.54453 5.11242 3.60305 5.07296 3.7123 4.98615Z" fill="#FF0431"/>
</svg>
