<svg width="32" height="40" viewBox="0 0 32 40" fill="none" xmlns="http://www.w3.org/2000/svg">
<path d="M31.125 20.0198C31.062 21.7054 30.039 22.8092 28.6697 23.7042C24.8137 26.1953 20.9735 28.7013 17.1175 31.1924C13.7179 33.4 10.334 35.6077 6.9187 37.8004C6.35211 38.1584 5.76977 38.5164 5.15596 38.77C2.87383 39.6948 1.11108 38.6507 0.906478 36.3088C0.875 35.9657 0.875 35.6077 0.875 35.2646C0.875 25.0766 0.875 14.9035 0.890739 4.73034C0.890739 3.99943 0.985172 3.23868 1.22125 2.5376C1.6462 1.28461 2.84235 0.643196 4.19589 0.986278C5.06152 1.21003 5.92716 1.58294 6.68262 2.06027C14.0484 6.80375 21.3984 11.592 28.7642 16.3653C30.1177 17.2454 31.0778 18.3641 31.125 20.0198Z" fill="white"/>
</svg>
