<svg width="14" height="18" viewBox="0 0 14 18" fill="none" xmlns="http://www.w3.org/2000/svg">
<path d="M13.625 9.0088C13.5974 9.7471 13.1493 10.2306 12.5496 10.6226C10.8606 11.7138 9.17846 12.8114 7.48946 13.9025C6.00039 14.8695 4.51821 15.8365 3.02224 16.797C2.77406 16.9538 2.51899 17.1106 2.25013 17.2217C1.25052 17.6268 0.478408 17.1694 0.388788 16.1436C0.375 15.9933 0.375 15.8365 0.375 15.6862C0.375 11.2237 0.375 6.76773 0.381894 2.31174C0.381894 1.99159 0.423257 1.65837 0.526665 1.35128C0.712799 0.802453 1.23673 0.521503 1.8296 0.671778C2.20877 0.769784 2.58793 0.933127 2.91883 1.14221C6.14516 3.21993 9.36459 5.31725 12.5909 7.40804C13.1838 7.79352 13.6043 8.28355 13.625 9.0088Z" fill="white"/>
</svg>
